<?xml version="1.0" standalone="yes"?>
<svg xmlns="http://www.w3.org/2000/svg" width="400" height="400">
<path style="fill:#bf9c96; stroke:none;" d="M0 0L0 9C4.22397 7.01648 15.2122 -1.56482 19.4985 2.61728C25.542 8.51398 12.4141 21.0563 19.3287 27.2971C33.9104 40.4576 63.2629 26.6407 79.4244 25.74C85.9654 25.3754 97.1718 29.9726 102 24L105 25L107 20L114 21C112.176 10.611 109.92 7.89014 120 1L120 0C112.572 2.20532 109.435 8.47043 103.074 12.1196C85.7973 22.0305 67.0816 28.2415 47 28.652C41.3763 28.767 33.166 28.8347 28.3264 25.5818C18.7229 19.1267 23.6439 6.75891 31 1L0 0z"/>
<path style="fill:#a37765; stroke:none;" d="M23 0L24 1L23 0z"/>
<path style="fill:#d4b5ad; stroke:none;" d="M118 1C111.806 -1.59909 102.686 0 96 0L49 0C42.5749 0 32.3864 -2.0238 27.6096 3.22839C19.6695 11.9585 21.2587 25.6645 34.0008 27.7245C51.7711 30.5975 68.1201 26.5974 85 21.4136C98.4205 17.2921 106.204 7.02554 118 1z"/>
<path style="fill:#a37765; stroke:none;" d="M114 21L107 20L105 25L102 24C95.4767 29.2692 86.8724 24.8259 79.4097 25.3858C63.878 26.5511 49.0413 33.789 33 31.2454C28.6737 30.5594 22.5556 30.0036 19.4043 26.5818C13.7541 20.4464 25.9549 6.49811 19.6427 2.03085C15.0801 -1.19824 2.42986 5.82117 0.603395 10.1335C-0.612806 13.0049 0 16.9452 0 20L10 12L12 12C13.1426 17.013 11.4458 27.7768 15.3681 31.1574C34.4327 47.5893 71.489 14.1716 84 41L86 39L87 39L93 41L97 56L100 55L107 67C95.3853 68.8052 89.6416 80.7137 89 92L84 90C88.5443 82.7908 81.8113 71.6712 74 69.3796C65.087 66.7649 57.9016 70.4017 52 77L52 78L53 86C39.7299 84.3163 39.1967 104.319 52 107C53.0721 112.03 60.4756 112.633 65 113L65 114L62 114L62 115L70 120L67 118L67 117L68 112L73 100L69 99L71 93L81 95L82 98L89 95L95.4159 105.043L92 119C82.9719 120.784 74.443 125.568 65 123L57 138L54 143L43 156L44 159L40 159C47.8069 168.582 77.0214 178.065 89.2809 173.169C91.8798 172.131 92.8091 168.513 94.439 166.456C97.1057 163.09 101.313 160.554 101 156L107 157L104 158L104 159C105.238 162.068 102.789 162.56 100 163L100 164L103 165L98 167C98.195 171.563 97.0421 176.517 93 179L93 180L95 182L87 188C85.4609 193.904 80.2427 195.11 75 197L76 202L73 201C73.182 207.49 72.1934 214.663 66 218C65.5521 235.463 54.4458 257.754 46.7014 272.999C44.2453 277.834 39.4986 280.719 38 286L34 284C28.4191 312.311 9.50126 335.614 0.698303 363C-2.71495 373.619 0 388.869 0 400L4 397L1 392C5.05897 391.13 4.08576 386.635 4.55556 383.028C5.289 377.395 4.45228 371.429 6.63889 366C8.94949 360.263 14.1276 358.881 13 352L17 350C16.4339 341.572 24.373 326.665 32 323L33 320L31 312C36.1915 309.098 36.2212 303.083 38.2608 297.985C40.892 291.41 46.8482 281.555 53 278C52.1245 272.978 52.7474 270.925 57 268C56.4411 259.861 63.424 246.747 70 242L69 239C78.2793 233.007 74.3857 211.987 90 211L94 205L94 196C97.3288 192.536 99.3896 188.869 99 184L120.62 155.83L122.396 146.278L106 134L105 134C103.951 138.163 106.66 143.106 104.883 146.892C103.386 150.081 98.4495 153.269 95.8719 155.733C92.3188 159.13 88.9851 163.432 85.0502 166.342C75.5945 173.335 66.1687 163.94 58 160L63 150L64 150L66 152L69 147L68 142L72 138L73 141L74 141L76 133L65 130L65 129L70 127L70 129L77 126L75 129L80 128L102 128L103 127C101.116 119.957 97.7711 115.088 101 108L102 108L112 109L112 108C104.377 107.583 94.7514 94.7896 103 90L120 106L113 107L113 108L128 109L129 109C129.322 100.235 113.021 96.3899 106 94C106.749 86.5461 98.1087 86.9203 97 94L92 94C92.4874 87.1751 93.0603 83.8329 99 80C97.1757 75.5718 97.2296 73.1533 101 70L100 74C104.024 74.4752 108.207 75.449 111 72L116 73C119.367 66.9318 124.58 66.5883 131 67L123 46L118 46L119 40L114 38L112 43L119 48L109 52L110 46L107 47L108 44L99 49L105 42C105.196 36.7938 107.276 32.4072 112 30L110 24C121.516 21.0204 129.159 17.7304 141 23L140 20C153.025 16.3992 152.608 10.6539 158 0L151 0C149.987 5.20334 148.905 11.5128 143.87 14.3928C138.294 17.5831 116.085 18.0981 116.461 8.02008C116.571 5.09048 120.354 2.22015 122 0C110.302 4.435 110.596 10.6517 114 21z"/>
<path style="fill:#7e5e5b; stroke:none;" d="M151 0L145 0C143.628 3.37769 142.21 10.015 138.852 11.7778C131.014 15.8923 123.547 6.99182 125 0C121.176 1.04459 113.039 5.65219 116.658 10.6983C121.956 18.0853 139.778 19.4726 146.246 13.2315C149.701 9.89783 150.417 4.51425 151 0z"/>
<path style="fill:#44342a; stroke:none;" d="M145 0C140.214 0 129.618 -2.00275 125.708 1.02777C118.148 6.88687 133.694 14.392 138.852 12.2423C142.35 10.784 144.114 3.42618 145 0z"/>
<path style="fill:#bf9c96; stroke:none;" d="M140 20L141 23C130.678 17.0197 120.25 19.8263 110 24L112 30C106.904 31.5869 104.369 36.8763 105 42C101.034 43.1495 99.6332 44.939 99 49L108 44L107 47L110 46L109 52L119 48L112 43L114 38L119 40L118 46L123 46C121.008 56.1512 128.312 57.9517 131 67C124.688 65.87 118.441 66.2806 116 73L111 72L100 74L101 70C96.5572 72.4501 96.7817 75.816 99 80C92.2049 83.0755 92.1545 87.1028 92 94L97 94C98.7507 87.7065 105.214 86.7523 106 94C112.62 97.1333 128.828 100.357 129 109L128 109L128 106C121.099 108.188 108.895 111.26 102 108L101 108C96.9013 114.728 100.467 120.219 103 127L102 128L80 128L75 129L77 126L70 129L70 127L65 129L65 130L76 133L74 141L73 141L72 138L68 142L69 147L66 152L64 150L63 150L58 160C74.3385 171.208 81.7312 170.219 95.8719 156.58C98.4806 154.064 104.15 150.256 105.357 146.892C106.744 143.03 104.35 138.154 105 134L106 134C109.6 140.49 120.157 141.392 122.381 147.133C124.097 151.562 120.227 155.345 117.695 158.424C111.059 166.498 106.271 176.596 99 184L94 196L94 205L90 211C74.8635 210.983 76.7431 231.446 69 239L70 242C63.1162 245.29 55.5833 260.555 57 268C52.1404 270.312 51.8193 272.981 53 278C38.7798 283.385 41.3499 304.323 31 312L33 320L32 323C24.2884 325.231 15.3058 342.248 17 350L13 352C13.3275 358.009 9.00682 359.894 6.85417 365.004C3.89446 372.029 7.31257 387.908 1 392L4 397L2 400L21 400L21 399L17 397L15 380C21.2098 373.372 15.8204 368.768 27 367L27 371L35 372L37 368L39 369L32 364L32 363L35 362C33.5312 358.897 34.1461 357.78 37 356C37.7648 359.569 39.9412 359.11 43 358L33 350L38 340L46 337L55 337C54.2889 342.015 57.2452 344.264 62 345L58 326L55 327C52.2295 320.838 45.7635 316.479 44.0895 309.831C43.3289 306.811 44.8743 295.335 49.1443 295.527C53.2146 295.71 56.3967 300.423 59 303L58 309L75 305L74 302L76 301L77 301L78 307L79 307L79 303C82.3142 303.499 83.3799 302.941 85 300L82 299L82 298L95 297L86 281L90 278L87 277L87 270L92 271L93 271C96.1124 265.628 93.9124 259.96 96.1914 255.209C99.2105 248.916 105.152 246.248 105.574 238.09C106.543 219.344 95.0358 188.227 116 177C114.981 170.107 120.212 166.642 126 164L123 167C123.144 171.102 122.676 173.867 119 176L132 194L133 189L136 188L136 191L151 192C156.383 181.482 137.241 173.22 135 163L129 163L129 162L133 162L137 149L140 148L140 153L143 148C152.617 148.732 152.526 160.361 164 157C160.643 150.518 151.9 142.814 145 147L146 139L146 138L150 139L151 136C160.122 137.688 172.339 129.841 158 127L158 122L159 121C164.353 123.573 167.322 124.316 172 120L176 128C173.676 130.239 175.7 131.603 178 133L181 145L175 145L176 148L173 147L175 155L171 149L167 152C173.096 154.902 171.519 163.323 180 163C177.225 173.041 173.31 174.179 164 173C164.34 181.472 166.461 199.392 161 206L156 221L152 221L154 227L146 228L144 236L144 237L146 240C139.28 244.097 138 254.832 138 262C145.834 265.764 146.708 275.47 137 277L137 280C141.976 281.016 143.298 283.453 145 288L140 288L144 291L144 301L136 295C134.175 299.719 130.4 305.946 135 310L135 312L133 312C135.211 320.954 135.07 324.42 126 328L130 340L127 341L129 344C124.62 345.351 121.504 346.523 119 342L108 345L99 333L101 330L91 327C91.4228 321.885 89.607 317.456 85 315L80 322L83 314L81 316C75.6796 313.848 72.4813 312.665 69 318C80.5674 323.333 75.4979 332.067 79 341L74 342C74.5207 344.645 72.8816 359.856 79 354L80 354L78 359L78 360L85 370C85.6519 366.016 84.4007 364.098 81 362L83 354L83 358C85.8168 355.31 82.6133 351.85 81 349L85 346L82 347L83 342C89.7475 346.932 84.9164 353.876 87 361L90 360L95 379L98 379L97 400L106 400L106 396C107.936 396.56 112.124 398.45 108 399L108 400L131 400L131 385L128 361L124 354L121 356L120 352C131.822 350.982 138.875 349.813 137 335L146 335L146 314C159.447 315.761 149.229 293.893 149.546 289.004C149.908 283.418 154.897 281.429 154 275C164.294 270.724 155.507 263.78 154 257L158 258L157 255L152 257L154 255L154 248L154 252L155 252L155 245L153 246L153 245L154 239L169 224L176.196 197L173.407 184.058L179 179C186.823 189.415 204.073 176.738 188 168C189.303 163.634 188.774 161.613 185 159C196.541 152.788 184.933 132.254 183 123L177 123C173.401 100.39 151.485 123.614 143 127L145 129L145 130C142.3 131.418 139.044 135.896 135.93 135.808C131.23 135.675 129.568 126.52 132.639 123.773C134.965 121.692 138.93 123.602 141.66 122.397C144.24 121.258 145.999 117.93 148 116L148 115C139.163 108.817 131.677 103.012 126 94C136.932 92.6064 137.648 105.169 146 106.623C150.457 107.4 158.423 100.361 164 99.5571C170.996 98.549 178.171 103.838 185 105C185.109 110.71 184.36 113.838 178 114L188 126L209 118C209.026 108.307 202.987 88.7657 213 84C211.617 78.7307 212.212 76.3991 218 76C220.043 72.0928 222.718 70.5633 227 72L225 61L237 64C248.087 52.1592 256.869 39.276 245 25L242 26L234 18L234 27C226.934 27.1901 220.073 20.6091 227 15L227 14L224 14L224 9L227 10L222.656 0.603394L208.576 0.138885L174 0L158.228 1.02777L153.184 12.8549L140 20z"/>
<path style="fill:#d4b5ad; stroke:none;" d="M209 0L210 1L209 0z"/>
<path style="fill:#a37765; stroke:none;" d="M224 0L227 10L224 9C224.29 11.9269 223.895 13.3886 227 14L227 15C218.195 19.4848 226.777 28.0672 234 27L234 18L242 26L245 25C246.457 27.8945 250.077 29.7046 250.778 33.0046C253.834 47.3917 242.916 53.6979 237 64L225 61L227 72C222.653 70.3335 219.444 71.4142 218 76C212.142 76.1949 211.097 78.5875 213 84C202.273 87.5575 209.005 108.735 209 118L188 126L178 114C184.747 114.751 185.318 110.816 185 105C178.364 103.222 171.008 98.412 164 99.3403C158.977 100.006 149.591 107.065 146 106.248C137.693 104.36 137.215 91.2979 126 94C129.814 102.788 139.39 110.802 148 115L148 116C145.368 117.734 143.755 121.232 140.812 122.383C138.199 123.404 134.035 121.281 132.039 123.639C129.339 126.827 130.98 136.302 135.93 136.368C139.294 136.413 142.529 131.915 145 130L145 129L143 127C152.612 124.646 171.192 100.755 177 123L183 123C184.284 133.464 196.121 150.735 185 159C188.175 161.982 188.921 163.708 188 168C190.696 170.153 195.533 173.789 194.978 177.812C193.934 185.366 182.44 182.032 179 179C176.741 179.717 173.446 180.382 172.877 183.144C172.087 186.983 176.031 191 176.027 195C176.018 203.313 164.928 217.175 169 224L154 239L156 241L156 242L153 246L155 245L155 252L154 252L154 248L151 249L152 257L158 258L154 257L153 260C158.63 264.78 161.179 270.538 154 275C154.211 280.911 149.484 283.7 149.257 289.004C149.011 294.745 158.992 313.783 146 314L146 335L137 335C137.299 340.572 136.619 350.007 129.945 351.933C126.858 352.824 123.286 351.386 120 352L121 356L124 354L128 361C127.822 366.453 126.6 381.832 131 385C129.782 390.751 126.828 397.9 134 400C130.966 388.503 139.626 385.188 140.353 375.055C140.759 369.388 132.95 367.543 134 360L137 361L139 356C134.899 353.655 138.327 340.624 141.435 337.625C143.968 335.181 147.314 335.63 148.898 331.935C150.384 328.468 148.966 324.525 150.866 321.134C153.554 316.336 158.45 312.181 157.782 306C157.193 300.54 150.09 293.807 151.287 289.005C152.017 286.075 154.792 284.471 156.056 281.866C160.304 273.103 165.886 259.897 166.458 249.981C167.038 239.935 170.311 234.21 174.347 225C175.811 221.661 176.101 216.996 180 216L180 204C184.82 201.049 183.237 196.726 182 192L187 190L193 197C192.746 189.884 197.5 185.908 203 182L201 180L197 160L192 160L192 159C202.366 154.614 193.169 149.019 193.837 142C194.546 134.555 201.389 132.062 207 129L210 131L208 127L213 128L211 125L215 124L212 130L212 134C219.321 138.222 228.255 153.035 214 155C211.432 166.177 213.284 178.898 209.711 190C205.968 201.628 197.252 209.68 194.808 222C193.29 229.652 194.369 239.332 202 243L202 242C193.852 235.601 194.874 223.889 198.32 215C201.805 206.011 209.091 199.544 211.491 190C213.904 180.402 212.436 169.442 215.897 160C217.477 155.688 222.432 153.357 223.527 148.91C225.292 141.744 221.167 134.212 222 127L232 127L239 133C236.275 140.025 232.49 146.665 236 154C242.79 153.78 240.246 158.73 243 163L235 184L239 184L238.253 208.981L242 219L241 219L237 212C230.15 215.254 221.737 217.081 217.564 224.015C214.287 229.46 221.296 245.56 210.002 244.999C207.716 244.886 205.249 243.506 203 243L203 244L215 248L216 254C205.071 258.046 208.102 270.327 206 280C207.843 283.28 206.36 288.256 202 287L201 287L200 295C194.556 293.985 192.955 296.964 194 302L204 294L205 294C207.583 302.529 206.889 308.316 203 316L206 317L206 321L203 321C208.444 332.45 205.514 341.653 221 341L220 337C223.219 337.021 221.141 334.021 220 332L223 329L226 331L227 324L225 319L220 314C222.928 312.121 224.867 308.748 222 306L217 284L221 285L218 277L223 275C221.468 265.969 225.793 260.321 225.79 252C225.788 246.178 209.751 220.128 229 225L227 236C239.421 232.269 252.923 219.299 242 207L248 207L253 204L254 207L255 207L255 202L252 202L252 200L253 199L255 200L255 198L261 199L261 198L257.641 185.015L243 172C245.344 161.495 242.894 157.665 239.742 148C236.842 139.11 244.107 128.982 252.964 135.555C264.178 143.878 263.38 168.786 284 166L284 169L287 173C281.753 173.874 287.816 185.413 292.463 180.519C294.229 178.658 294.089 173.539 295 171L291 171L289 173L288 172L288 171L288 170C294.093 169.798 296.711 166.438 299 161L304 161L303 156L310 155L310 165L312 169C320.483 178.581 323.326 162.438 323.417 156C323.541 147.228 317.03 132.534 311 127L310 127L305 150L304 150L296 135L296 134L298 132L294 130L293 127L293 126L293 125L296 120L293 114C295.497 111.168 292.025 106.467 291.569 103C290.747 96.7458 297.729 88.0895 304 87.3372C311.407 86.4487 320.889 101.826 327 105.971C348.918 120.837 369.387 120.864 389.424 104.158C392.873 101.283 397.531 99.7692 400 96C395.047 98.0587 387.726 99.5319 386 105C378.544 106.099 372.015 112.959 364.91 115.555C353.182 119.84 329.149 108.985 323 99L320 100C313.888 81.5718 300.898 79.5433 290.93 96.0146C287.008 102.494 289.413 108.109 288.213 115C287.193 120.859 283.449 126.591 281 132L294 136L298 155C289.488 156.842 282.991 163.193 273.715 159.837C265.582 156.895 263.618 147.909 260.471 141.015C255.431 129.974 248.385 123.272 249.39 110C249.998 101.956 258.129 96.2863 258 89C267.713 86.0356 287.251 83.3779 291.156 73C293.422 66.9774 289.041 63.4545 287.944 57.9861C285.937 47.9729 291.817 34.941 301 30.6435C307.988 27.3736 311.983 31.7259 318.004 34.1605C324.19 36.6622 330.828 37.4306 337 40.243C341.06 42.093 344.545 45.7295 349 46.5872C355.794 47.8951 365.335 41.2947 371 38L371 36C362.383 29.9003 351.993 28.7288 343 23.6242C338.126 20.8579 335.262 15.6135 330.74 12.419C322.785 6.79953 315.195 6.07889 306 5L307 7L306 7L298 0C305.846 13.5733 326.799 27.4452 342 31.5054C350.203 33.6966 358.876 33.4246 367 36C352.617 54.3137 338.283 32.927 322 34L322 31L318 32C312.297 23.5287 301.413 27.2213 295.015 32.6158C286.665 39.6562 284.687 51.6724 286.359 62C287.094 66.5383 287.215 70.1752 283.729 73.7322C277.134 80.4627 268.864 77.5988 260.961 79.5826C256.269 80.76 252.827 84.2964 249 87L248 96L245 97L246 127L223.999 122.592L215 121L218 122L213 118L217 113L214.296 97.1042L209.206 90.0432L214 81L224 78L234 76C233.888 69.2236 238.533 71.2647 242.451 67.4028C248.1 61.8357 258.022 49.1137 259.062 41.0008C261.426 22.5648 236.625 16.7256 240 0L224 0z"/>
<path style="fill:#7e5e5b; stroke:none;" d="M240 0C234.861 16.5088 260.588 22.6511 258.888 40.5756C258.124 48.6315 247.635 60.7475 242.491 66.6173C238.702 70.9401 233.444 68.7403 234 76L224 78L214 81L208.636 90.0432L214.282 98.0432L217 113L213 118L218 122L215 121L216 124L246 127L245 97L248 96L249 87C253.168 84.993 256.437 81.1992 261 79.9321C268.916 77.7338 278.096 80.9937 284.502 73.7354C289.706 67.8389 285.666 60.843 285.789 54C286.054 39.1464 303.594 17.4317 318 32L322 31L322 34C335.626 33.7899 356.717 55.7787 367 36L335 28.0231L308 10.625L296 0C301.682 12.1843 316.232 18.5536 326 27C308.01 23.2136 289.086 26.8289 284.336 47C282.658 54.1264 286.783 65.1986 281.577 70.7863C272.484 80.546 249.125 71.7512 239.703 82.5332C232.203 91.1155 240.288 107.67 237 118L225.148 117.049L221.045 105L211 90C214.6 87.9811 215.689 86.1016 216 82C223.325 82.9209 235.039 81.165 240 75L243 76C248.069 68.2801 252.457 60.1147 258.553 53.0934C261.856 49.2896 267.739 47.8482 269.476 42.7176C272.043 35.1359 271.196 24.6227 261 26C257.709 17.2519 253.855 8.5629 244 6L246 0L240 0z"/>
<path style="fill:#44342a; stroke:none;" d="M244 6C253.585 10.0572 256.566 17.355 261 26C270.244 25.9582 272.406 35.0596 269.107 42.7137C267.092 47.3891 261.771 48.7098 258.553 52.2199C252.333 59.0053 246.821 67.6522 243 76L240 75C233.577 80.2835 224.068 82.6136 216 82L211 90L221.045 106L224.318 117.127L237 118C241.19 107.488 232.044 90.9788 240.419 82.5332C244.692 78.2244 259.958 75.1522 266 74.7384C271.112 74.3884 278.726 75.2601 282.293 70.7716C286.792 65.1104 282.728 54.8434 284.336 48C289.449 26.2509 307.362 25.2494 326 27C320.394 20.1185 311.539 15.9927 305 9.91049C301.737 6.87479 298.297 1.55548 293.83 0.317902C285.948 -1.86597 275.171 0 267 0C259.212 0 246.798 -3.11514 244 6z"/>
<path style="fill:#bf9c96; stroke:none;" d="M300 0L307 7L306 5L329.871 12.419L342.167 23.6489L371 36L371 38C365.035 40.4803 355.599 47.8873 349 46.2932C344.685 45.2507 341.088 41.5704 337 39.8156C330.865 37.1822 323.972 36.5189 318.004 33.7369C312.346 31.0998 307.573 27.0361 300.91 30.0355C291.409 34.3122 285.712 47.8546 287.659 57.9854C288.707 63.4352 293.392 67.1626 290.718 73C285.689 83.976 268.166 84.6375 258 89C256.332 96.5864 249.749 101.582 249.213 110C248.345 123.638 255.33 130.595 260.471 142.004C263.473 148.667 265.142 157.067 272.965 159.917C282.33 163.329 289.569 157.88 298 155L294 136L281 132C284.238 126.585 287.764 120.334 288.556 114C289.352 107.64 287.364 102.973 290.93 97.0038C298.083 85.0309 305.631 79.6066 314.873 92C316.807 94.594 318.56 97.1083 320 100L323 99C327.589 109.944 353.572 119.36 364.91 116.093C372.29 113.966 378.565 106.999 386 105L400 92L371 105C368.916 111.748 358.621 110.359 355 106C345.33 105.3 333.993 99.4031 329 91C317.324 89.9377 317.423 78.3855 310.571 71.4738C306.23 67.095 300.12 67.3137 300 60C296.005 57.6762 293.667 52.2621 296 48L296 47L293 46L296 36L301 41L302 41L304 36C320.217 37.8115 342.72 37.2551 351 55C358.793 51.8335 371.629 41.4992 377 35L369 30L365 19L355 6L345.871 0.6875L300 0z"/>
<path style="fill:#d4b5ad; stroke:none;" d="M329.667 0.333344L330.333 0.666656L329.667 0.333344M343 0L343 1L346 1L343 0M347 0L347 1L355 6C355.813 11.0458 360.645 16.4727 365 19L369 30L377 35L351 55C345.915 36.8953 318.656 37.0666 304 36L302 41L301 41L296 36C295.058 39.3476 292.084 46.2209 296 47L296 48C292.444 51.4073 295.886 58.5596 300 60C298.994 67.7698 306.303 67.5605 310.571 72.2639C317.169 79.5355 317.161 90.4484 329 91C331.925 99.1703 346.506 106.943 355 106C358.067 111.202 369.638 111.749 371 105L400 92L400 0L347 0z"/>
<path style="fill:#a37765; stroke:none;" d="M186 19C191.534 16.9023 191.952 12.403 192 7C187.827 6.00763 184.852 2.05869 180.835 1.37268C167.506 -0.90332 184.344 16.7737 186 19z"/>
<path style="fill:#d4b5ad; stroke:none;" d="M215 2L210 5L187 26C191.067 28.7105 193.336 31.05 194 36L186 36L190 42L182 51L186 57L193 58L194 41L201 43L206 30C200.301 26.5064 202.055 23.6931 201 18C206.179 18.7124 208.703 19.8429 212 24L214 24L215 14L219 16L215 2M164 10L164 11L168 11L164 10z"/>
<path style="fill:#7e5e5b; stroke:none;" d="M12 10L15 14L12 10M10 12C3.21138 19.8823 0 20.8706 0 32L28 37.5718L62.9992 34.4344L76 42C75.2278 53.8174 83.4294 50.3986 89.6929 55.6921C93.6189 59.0102 94.5397 70.2706 92.4005 74.767C91.0406 77.6252 88.2814 77.249 86.0386 75.6389C75.8702 68.3391 67.3079 62.1232 54.0039 68.5725C44.5953 73.1335 40.4045 86.7722 38.2554 96C37.5184 99.1644 35.35 104.432 37.1173 107.529C39.0073 110.841 44.0102 111.379 46.8711 113.555C54.3512 119.244 56.584 124.261 58 133L57 134L51 134L49 131C51.3135 118.576 38.3241 118.936 30 116.495C25.5678 115.194 21.3007 110.933 18 116C4.84641 113.228 17.6911 124.682 19.0031 128.105C20.5826 132.226 19.2065 137.158 23.2284 140.146C26.9562 142.915 32.4849 142.222 34.7315 147.055C38.0185 154.126 32.1367 159.343 39.669 165.755C48.752 173.486 63.204 171.345 71 180C62.5235 181.486 71.2188 192.757 62 195C66.4864 207.538 60.4853 218.544 56.0031 230C47.0306 252.932 39.906 276.127 23 294C22.4171 299.566 19.2563 303.572 15 307L13 326L8 324L11 328C5.59957 340.368 0 349.172 0 363L1 363L23.4699 314L34 284L38 286L46.1466 274.985L60.1736 239L66 218C72.7947 215.751 73.5788 207.196 73 201L76 202L75 197C80.49 195.706 86.0948 194.177 87 188L95 182L93 180L93 179C97.4289 178.056 99.1976 170.892 98 167L103 165L100 164L100 163C102.554 162.803 107.077 161.913 104 159L104 158L107 157L101 156L102 159C95.9841 161.962 94.5392 169.541 89.3704 172.628C85.9344 174.68 77.6835 173.81 74 172.921C62.0182 170.028 49.4932 167.208 40 159L44 159L43 156C47.364 153.174 53.5868 148.318 54 143C60.4058 142.056 63.7773 128.546 65 123C73.8734 126.139 83.644 121.741 92 119L95.9807 104.104L89 95L82 98L81 95L71 93L69 99L73 100L68 112L67 117L67 118L70 120L62 115L62 114L65 114L65 113C60.7868 112.321 53.2041 111.715 52 107C40.5419 103.279 39.2526 86.9117 53 86L52 78L52 77C56.4779 73.3889 60.8836 68.8479 67.0895 68.5463C77.7425 68.0286 88.4747 79.7287 84 90L89 92C91.3442 80.3928 95.0833 70.3687 107 67L100 55L97 56L93 41L84 41C80.912 29.9984 72.3551 30.1618 63 30.9143C49.0097 32.0397 29.0707 40.3067 16.2338 31.2469C11.4452 27.8673 13.6923 17.3404 12 12L10 12z"/>
<path style="fill:#d4b5ad; stroke:none;" d="M161 15C153.366 18.8584 160.685 24.5918 161 15z"/>
<path style="fill:#bf9c96; stroke:none;" d="M228 16L229 17L228 16z"/>
<path style="fill:#d4b5ad; stroke:none;" d="M99 17L100 18L99 17z"/>
<path style="fill:#a37765; stroke:none;" d="M111 17L112 18L111 17z"/>
<path style="fill:#d4b5ad; stroke:none;" d="M95 23L100 20C96.9077 19.478 95.8601 19.9191 95 23z"/>
<path style="fill:#bf9c96; stroke:none;" d="M198 20L199 21L198 20z"/>
<path style="fill:#d4b5ad; stroke:none;" d="M129 22L128 27L133 23L129 22z"/>
<path style="fill:#a37765; stroke:none;" d="M167 26L170 38L171 38L171 34L174 35C173.03 29.7228 173.006 26.686 167 26z"/>
<path style="fill:#d4b5ad; stroke:none;" d="M118 27L118 29L120 29L120 27L118 27M133 30L134 34L137 29L133 30M157 29L151 34L154 46L146 50L146 51L153 55L154 56L156 58L157 58L164 36L160 34L161 31L157 29z"/>
<path style="fill:#44342a; stroke:none;" d="M0 349L11 328L8 324L13 326L15 307C19.9127 304.291 22.8441 299.625 23 294C26.0888 291.775 25.8553 288.382 28.3179 285.579C31.6383 281.8 36.1722 279.262 38.9684 274.985C48.1361 260.963 51.9913 240.566 58.4028 225.004C62.1591 215.886 66.9214 204.644 62 195C71.5646 195.154 62.909 182.216 71 180C65.953 171.536 49.4195 172.309 41.3002 166.402C32.1731 159.761 38.9301 153.674 34.8063 146.133C32.4255 141.78 26.6806 142.461 23.2284 139.487C19.1076 135.936 21.1822 131.302 19.1775 127.043C17.5445 123.574 6.00582 114.641 18 116C22.1979 111.89 25.1696 115.652 30 116.737C38.6073 118.67 49.9626 119.349 49 131L51 134L57 134L58 133C57.4622 124.027 54.9485 119.373 47.7407 113.555C44.2928 110.771 37.4428 110.275 36.9082 104.946C35.1095 87.016 50.685 63.6805 70 66.3048C75.5457 67.0583 88.3341 80.5724 91.973 76.2531C95.373 72.2173 93.9902 59.2325 90.4352 55.6566C84.6985 49.8864 75.8124 53.828 76 42C71.6673 40.0034 68.8061 35.3497 64.0108 34.3279C50.3374 31.4144 36.1148 38.7885 22 36.7137C17.0404 35.9847 5.82525 28.187 1.6034 31.9367C-2.15283 35.2729 0 47.373 0 52L0 111L0 349z"/>
<path style="fill:#d4b5ad; stroke:none;" d="M121 31C121.176 36.3925 123.211 37.6679 127 41L128 41L130 40L126 37L131 35L131 30L121 31z"/>
<path style="fill:#44342a; stroke:none;" d="M332 30C332.675 33.8539 334.247 34.2889 338 34L338 31L332 30z"/>
<path style="fill:#7e5e5b; stroke:none;" d="M93 33L98 36C97.3456 32.946 95.9934 33.0642 93 33z"/>
<path style="fill:#a37765; stroke:none;" d="M144 34C141.394 38.968 142.311 43.3107 148 45C148.512 39.9907 148.068 37.2343 144 34z"/>
<path style="fill:#d4b5ad; stroke:none;" d="M132.333 37.6667L132.667 38.3333L132.333 37.6667z"/>
<path style="fill:#44342a; stroke:none;" d="M348 37L349 38L348 37M355 37L355 39L357 39L357 37L355 37z"/>
<path style="fill:#7e5e5b; stroke:none;" d="M145 38L145 40L147 40L147 38L145 38z"/>
<path style="fill:#bf9c96; stroke:none;" d="M251 39L252 40L251 39z"/>
<path style="fill:#d4b5ad; stroke:none;" d="M132 40L133 41L132 40z"/>
<path style="fill:#bf9c96; stroke:none;" d="M192 40L193 41L192 40z"/>
<path style="fill:#d4b5ad; stroke:none;" d="M129.333 41.6667L129.667 42.3333L129.333 41.6667z"/>
<path style="fill:#bf9c96; stroke:none;" d="M154.667 44.3333L155.333 44.6667L154.667 44.3333z"/>
<path style="fill:#a37765; stroke:none;" d="M203 45C208.011 55.2836 216.865 57.4848 227 58L218 45L203 45z"/>
<path style="fill:#bf9c96; stroke:none;" d="M297 44L298 45L297 44M156 46L158 49L156 46z"/>
<path style="fill:#7e5e5b; stroke:none;" d="M206 46C208.572 50.5887 214.575 56.3163 220 56C216.671 48.573 214 47.0163 206 46z"/>
<path style="fill:#a37765; stroke:none;" d="M111.333 48.6667L111.667 49.3333L111.333 48.6667z"/>
<path style="fill:#bf9c96; stroke:none;" d="M105 49L107 51L107 49L105 49z"/>
<path style="fill:#a37765; stroke:none;" d="M162 66C164.628 70.5941 166.776 72.552 172 74L167 84L167 86C189.614 94.4067 191.158 63.7461 178.482 53.118C174.833 50.0586 164.526 46.2158 161.032 51.4337C157.884 56.1342 164.04 61.0938 162 66z"/>
<path style="fill:#7e5e5b; stroke:none;" d="M173 85C186.229 82.9574 184.544 61.4145 175.891 54.9553C173.133 52.8966 163.469 48.4969 161.816 54.314C159.437 62.692 171.11 69.2068 173.934 75.054C175.438 78.1699 173.866 81.9162 173 85z"/>
<path style="fill:#bf9c96; stroke:none;" d="M107.333 52.6667L107.667 53.3333L107.333 52.6667z"/>
<path style="fill:#d4b5ad; stroke:none;" d="M205 54L206 58L210 54L205 54z"/>
<path style="fill:#7e5e5b; stroke:none;" d="M114 56L114 67L115 67L116 62L122 62C121.215 57.0771 118.725 56.1538 114 56z"/>
<path style="fill:#d4b5ad; stroke:none;" d="M135.333 56.6667L135.667 57.3333L135.333 56.6667z"/>
<path style="fill:#44342a; stroke:none;" d="M176 71C177.151 66.5001 174.819 50.6555 166.619 57.0432C160.724 61.6347 172.236 70.1026 176 71z"/>
<path style="fill:#a37765; stroke:none;" d="M97 58L98 59L97 58M144.147 61.0285C135.96 65.8364 146.68 73.3799 152.601 69.6775C159.104 65.6111 149.412 57.937 144.147 61.0285z"/>
<path style="fill:#d4b5ad; stroke:none;" d="M212 61L212 64L216 64L216 61L212 61z"/>
<path style="fill:#7e5e5b; stroke:none;" d="M144 64L144 66L152 66L144 64z"/>
<path style="fill:#a37765; stroke:none;" d="M97 66L100 64L97 66z"/>
<path style="fill:#d4b5ad; stroke:none;" d="M199 68L196 72L198 78L198 79C187.65 87.7437 190.65 91.0982 202 93C203.573 89.3311 206.527 72.4503 203 72L199 68M152 81L155 84L156 84L161 79C155.449 72.043 150.514 71.0121 152 81z"/>
<path style="fill:#bf9c96; stroke:none;" d="M73 73L73 74L73 75L76 75L76 76L68 74L66 88L82 92C78.3136 85.12 81.8919 74.006 73 73z"/>
<path style="fill:#d4b5ad; stroke:none;" d="M159.667 73.3333L160.333 73.6667L159.667 73.3333z"/>
<path style="fill:#a37765; stroke:none;" d="M113 84C109.408 84.1689 108.568 85.5109 108 89C110.566 90.2744 113.006 92.6305 116.011 92.6636C121.995 92.7295 129.056 85.1597 125.011 79.4151C119.862 72.1042 111.556 75.7215 113 84z"/>
<path style="fill:#bf9c96; stroke:none;" d="M61 76L61 77L65 80L61 76z"/>
<path style="fill:#7e5e5b; stroke:none;" d="M114 79L115 80L114 79z"/>
<path style="fill:#d4b5ad; stroke:none;" d="M148 84L146 87L151 94C156.003 93.6102 156.607 91.6453 157 87L148 84M257 103L255.228 121.985L259 132C265.549 135.611 261.792 144.302 265.742 149.927C269.054 154.644 273.298 152.733 274.941 148.006C275.515 146.357 275.747 144.715 276 143L282 147L284 147C287.859 138.131 280.327 135.778 273 136L278 126L282 122C274.719 114.416 285.413 98.8246 290 92C280.535 79.7754 266.909 99.554 257 103z"/>
<path style="fill:#7e5e5b; stroke:none;" d="M293 114L296 120L293 125L293 126L293 127L295 127L294 130L298 132L296 134L296 135L304 150L305 150L310 127L311 127C316.181 134.049 323.487 147.293 323.052 157C322.731 164.163 320.895 175.836 312 169L310 165L310 155L303 156L304 161L299 161C296.101 165.693 293.821 169.552 288 170L289 173L291 171L295 171C292.666 174.501 294.693 176.227 294 179C291.387 189.451 279.195 171.049 287 173L284 169L285 167L284 166C275.542 166.045 265.104 158.616 261.504 150.981C258.657 144.944 259.115 138.933 252.96 134.876C243.025 128.327 236.636 140.069 239.728 149C243.001 158.456 244.334 161.749 243 172L257.192 185.015L261 198L261 199L255 198L252 200L252 202L255 202L255 207L254 207L253 204C250.073 204.29 248.611 203.895 248 207L242 207C250.95 220.835 239.705 230.411 227 236L229 225C209.746 216.787 225.566 247.762 225.573 252C225.586 260.408 220.524 265.8 223 275L218 277L221 285L217 284L222 306C223.774 309.356 222.717 311.566 220 314L225 319L227 324L226 331L223 329L220 332C220.48 334.401 224.085 338.021 220 337L221 341C205.007 341.275 209.882 331.333 203 321L206 321L206 317L203 316C207.887 309.3 208.655 301.697 205 294L204 294L194 302C193.463 297.173 194.961 294.815 200 295L201 287L202 287C205.654 290.394 208.996 282.851 206 280C209.062 269.689 205.227 259.791 216 254L215 248C211.239 247.376 208.333 246.31 204.985 244.466C180.3 230.87 205.18 206.891 210.025 190C213.228 178.837 212.132 166.322 214 155C228.279 154.354 220.717 137.423 212 134L212 130L215 124L211 125L213 128L208 127L210 131L207 129C200.743 131.462 194.229 134.352 193.488 142C192.744 149.671 201.351 153.189 192 159L192 160L197 160L201 180L203 180L203 182C196.668 185.163 193.151 189.804 193 197L187 190L182 192C182.798 196.957 184.002 200.258 180 204L180 216C175.655 216 175.617 221.458 173.944 225C169.415 234.591 168.002 240.943 166.056 250.972C164.046 261.327 159.686 271.324 155.917 280.972C154.724 284.024 151.335 285.655 150.583 289C149.299 294.713 157.793 300.494 157.778 307C157.764 312.885 152.362 316.351 150.306 321.083C148.516 325.202 150.462 330.117 147.389 333.75C145.563 335.908 142.453 335.508 140.639 337.5C137.968 340.433 133.657 354.855 139 356L137 361L134 360C132.226 368.186 138.915 367.98 139.839 374.133C140.792 380.484 123.029 397.424 138 400L143 378L150 381C152.58 371.49 152.131 354.148 142 349C143.843 342.711 147.918 341.831 150.991 336.856C154.771 330.735 157.594 317.186 158.671 310C159.666 303.364 151.781 295.399 153.338 290.224C154.247 287.202 158.573 286.464 160.051 283.664C164.16 275.875 167 265.918 167 257L173 258L175.164 232.039L191 206C198.404 209.779 191.79 226.974 193.34 235C194.896 243.054 201.874 246.437 207 252L206 254L202 253C200.165 256.145 196.585 260.978 197.708 264.83C198.711 268.274 202.903 269.953 202.418 274C201.934 278.046 197.903 279.315 196.102 282.455C192.745 288.309 190.227 300.165 191.133 306.996C191.722 311.43 195.515 313.175 196.895 317.104C202.616 333.394 208.419 345.751 205 363C211.361 368.434 222.393 377.54 231 376L229 384L234 384L233 381L236 378L233 367L228 362L226 364L224 361L227 359L224 358L226 356L225 353L244 338L243 336L243 335L246 336C249.912 329.016 253.568 317.016 254.62 309.039C254.997 306.179 253.55 303.184 254.392 300.424C255.854 295.629 260.64 292.315 262.812 287.925C264.211 285.097 263.292 281.936 264.396 279.05C268.182 269.15 276.368 255.978 274 245C280.637 241.318 284.1 219.569 286 212L292 212L292 211L288 212C288.656 207.297 289.272 204.674 294 203L294 199L297 200C297.265 196.806 297.628 193.861 301 193C296.816 185.627 300.269 184.994 301 177L305 177L304 180L308 194L305 195L305 197L316 199L321 194L319 191C327.511 186.329 326.521 174.54 327.144 166C327.897 155.683 324.08 150.455 321.019 141.015C318.57 133.46 317.343 117.503 311.4 111.904C309.191 109.822 305.751 110.39 303.375 108.481C299.88 105.674 298.601 102.256 294 101C295.129 96.2495 299.912 87.7195 306 90.2376C312.989 93.1287 316.602 101.954 323 106.009C345.765 120.437 366.956 124.853 389 107.718C392.85 104.725 397.634 102.314 400 98C386.595 101.869 377.908 117.949 362.985 117.831C347.786 117.711 331.464 109.817 320.104 100.112C315.836 96.4651 313.459 89.6374 307.985 87.6042C301.206 85.0858 294.896 91.3765 292.279 97C289.481 103.014 294.716 108.332 293 114z"/>
<path style="fill:#44342a; stroke:none;" d="M294 101C298.238 102.886 299.791 106.635 303.375 109.224C305.817 110.988 309.237 110.348 311.4 112.611C314.877 116.249 314.669 123.513 316.627 128C323.707 144.227 336.719 176.718 319 191L321 194L316 199L305 197L305 195L308 194L304 180L305 177L301 177C299.706 185.084 295.007 185.905 301 193C297.333 193.783 297.191 196.512 297 200L294 199L294 203C288.607 204.125 288.291 207.016 288 212L292 211L292 212L286 212C282.378 221.072 281.447 239.017 274 245C274.83 256.346 268.627 268.203 264.189 278.17C262.788 281.316 263.891 284.817 262.223 287.91C260.007 292.02 256.033 295.253 254.194 299.611C252.792 302.932 254.868 306.504 254.16 310.015C252.478 318.353 249.216 328.106 246 336L243 335L244 338L225 353L224 358L227 359L224 361L228 362C228.558 365.5 229.35 366.865 233 367C232.696 369.968 232.853 377.476 236 378L233 381L234 384L229 384L231 376C221.523 376.739 212.681 367.506 205 363C209.419 346.585 203.519 331.673 197.15 316.209C195.691 312.668 192.118 311.006 191.279 306.996C189.881 300.317 193.434 289.222 196.298 283.259C197.867 279.992 201.645 278.842 202.547 274.995C203.756 269.839 198.674 268.268 197.993 263.91C197.452 260.449 200.709 256.102 202 253L206 254L207 252C203.008 245.949 196.243 243.328 193.85 236C191.236 227.992 199.54 208.594 191 206L175.164 231.09L173 258L167 257C166.999 265.319 163.913 276.648 159.531 283.66C157.897 286.275 153.539 287.139 152.75 290.224C151.261 296.042 159.722 302.875 158.47 310C157.246 316.963 154.542 329.86 150.99 335.946C147.779 341.447 143.47 341.997 142 349C151.674 356.333 151.676 370.159 150 381L143 378C143.274 383.166 135.922 395.919 137.917 398.397C140.861 402.054 152.736 400 157 400L213 400C218.1 400 233.217 402.649 229 394L232 395L233 394C230.71 390.266 228.208 390.05 224 390L224 389L233 388C233.845 393.393 237.08 393.531 242 394L237 388L252.112 399.686L275 400L323 400L348.848 399.397L352 388L357 389C357.023 380.133 361.353 374.4 362.999 366C364.149 360.134 363.404 353.42 369.174 349.689C373.069 347.17 379.544 348.169 384 347L383 341L387 338L389 339L393 329L392 328L389 329L384 325L389 323L386 321L384 312L385 309L395 309L394 299L391 298L390 291L399 297L400 297C400 289.495 403.666 266.951 398 262L400 246L397 247L397 242L400 242L400 100C389.265 105.019 381.316 114.806 370 118.756C355.59 123.786 335.902 113.551 324 106.009C317.416 101.838 313.423 92.2803 306 89.7616C299.305 87.4901 294.726 95.5654 294 101z"/>
<path style="fill:#bf9c96; stroke:none;" d="M54 97L56 99L56 100L54 101L54 102L59 105L58 108C61.5235 107.961 67.2601 107.842 68.7593 103.736C69.6205 101.378 65.419 91.5681 62.74 91.0602C59.9856 90.538 56.4597 95.7771 54 97z"/>
<path style="fill:#7e5e5b; stroke:none;" d="M120 106L103 90C97.3176 92.0966 99.7781 103.026 104.153 106.258C108.692 109.612 115.101 107.011 120 106z"/>
<path style="fill:#44342a; stroke:none;" d="M101 93L102 94L101 93z"/>
<path style="fill:#a37765; stroke:none;" d="M111 93L112 94L111 93z"/>
<path style="fill:#bf9c96; stroke:none;" d="M93 96L93 97L97 95L93 96z"/>
<path style="fill:#d4b5ad; stroke:none;" d="M143.667 96.3333L144.333 96.6667L143.667 96.3333z"/>
<path style="fill:#bf9c96; stroke:none;" d="M210 97L211 98L210 97z"/>
<path style="fill:#44342a; stroke:none;" d="M76 100L78 116C87.8065 116.692 90.75 113.082 94 104L76 100z"/>
<path style="fill:#7e5e5b; stroke:none;" d="M146 109L146 110L151 114C156.061 113.542 160.62 110.614 165.424 110.228C168.344 109.994 171.038 111.843 173.985 111.787C176.005 111.749 178.459 111.008 179.029 108.791C180.043 104.853 174.712 103.357 171.999 102.429C161.149 98.716 155.522 105.941 146 109z"/>
<path style="fill:#44342a; stroke:none;" d="M104 102C106.404 105.416 110.066 105.428 114 105L114 103L104 102z"/>
<path style="fill:#bf9c96; stroke:none;" d="M345 102L346 103L345 102z"/>
<path style="fill:#44342a; stroke:none;" d="M156 106L156 107L159 109L160 109L167 104L156 106M169 104L168 107L169 104M171 109L175 108L171 109z"/>
<path style="fill:#d4b5ad; stroke:none;" d="M116 140L119 134L120 134L122 136L126 124L123 123L125 119C127.665 118.792 133.792 115.823 128.677 113.156C123.833 110.63 119.318 116.635 117 109C104.642 109.952 105.757 136.328 116 140M284.333 115.667L284.667 116.333L284.333 115.667z"/>
<path style="fill:#a37765; stroke:none;" d="M54 117L55 118L54 117z"/>
<path style="fill:#7e5e5b; stroke:none;" d="M94 118L93 122L96 121L94 118z"/>
<path style="fill:#d4b5ad; stroke:none;" d="M137 118L137 120L141 120L141 118L137 118M281.667 119.333L282.333 119.667L281.667 119.333z"/>
<path style="fill:#a37765; stroke:none;" d="M35 135L34 137L35 137C37.9412 137.185 40.5694 138.483 41 135L45 135L46 131C45.1099 128.47 45.2792 124.679 43.3935 122.657C41.3832 120.502 38.655 120.786 36 120.895C32.7733 121.027 29.0456 120.05 26.4298 122.473C19.529 128.864 27.186 138.222 35 135z"/>
<path style="fill:#d4b5ad; stroke:none;" d="M171 120C166.772 124.203 164.041 122.667 159 121L158 122L158 127C171.568 130.684 159.265 137.017 151 136L150 139L146 138L146 139L145 147C152.419 143.984 159.393 151.112 164 157C152.855 159.327 152.677 148.317 143 148L140 153L140 148L137 149L133 162L129 162L129 163L135 163C136.596 174.461 155.013 180.546 151 192L136 191L136 188L134 188L133 189L132 194L119 176C123.258 174.518 123.621 171.136 123 167L126 164C119.763 165.757 114.29 170.154 116 177C105.675 180.79 106.47 186.984 105.102 196.285C102.974 210.753 107.048 224.834 105.188 239.039C104.172 246.793 98.2107 249.111 95.4576 255.209C93.4359 259.687 95.3469 265.725 93 271L92 271L87 270L87 277L90 278L86 281L95 297L82 298L82 299L85 300L79 303L79 307L78 307L77 301L74 302L75 305L58 309L59 303C51.1811 292.217 42.0877 295.055 43.4938 308.95C44.1639 315.571 51.5203 321.678 55 327L58 326L62 345C57.6501 343.774 55.1976 341.621 55 337L46 337L38 340L33 350L36 350L43 358L37 356C33.5706 357.372 32.891 358.897 35 362L32 363L32 364L37 368L35 372L27 371L27 367C16.3471 367.825 19.907 372.536 15 380L17 397C24.6178 401.629 34.3674 400 43 400L97 400L98 379L95 379C95 371.14 93.8737 366.841 90 360L87 361C85.413 353.789 91.0389 345.884 83 342L82 347L85 346L81 349L83 358L83 354L81 362L85 370L78 360L78 359L80 354L79 354C72.6443 356.515 75.2027 345.939 74 342L79 341C76.8458 332.031 80.9464 321.838 69 318L83 314L80 322L85 315C88.8401 318.092 91.1867 321.972 91 327L101 330L99 333L108 345L119 342C120.699 347.119 124.853 345.754 129 344L130 340L126 328C139.291 324.688 129.831 318.984 135 312L135 310L133 310L136 295L144 301L144 291L140 288L145 288C143.638 283.012 142.411 280.61 137 280L137 277C147.043 276.227 147.174 264.654 138 262C138.001 254.333 140.142 245.394 146 240L144 237L144 236L146 228L154 227L152 221L156 221L161 206C167.14 201.104 164.587 180.507 164 173C173.404 175.117 178.14 173.761 180 163L167 152L171 149L175 155L173 147L176 148L175 145L181 145L178 133L176 128L171 120z"/>
<path style="fill:#a37765; stroke:none;" d="M60 121L64 124L60 121z"/>
<path style="fill:#d4b5ad; stroke:none;" d="M165.667 121.333L166.333 121.667L165.667 121.333z"/>
<path style="fill:#a37765; stroke:none;" d="M225.667 121.333L226.333 121.667L225.667 121.333z"/>
<path style="fill:#bf9c96; stroke:none;" d="M40 122C35.6842 131.502 47.3284 126.269 40 122z"/>
<path style="fill:#a37765; stroke:none;" d="M310 125L315 124C312.587 122.338 311.608 122.556 310 125z"/>
<path style="fill:#bf9c96; stroke:none;" d="M222 127C220.692 134.161 224.738 140.756 223.397 147.961C222.496 152.795 216.918 155.192 215.525 160C212.822 169.33 213.995 179.819 211.458 188.999C208.208 200.763 198.54 208.717 196.436 221C194.856 230.223 197.641 249.166 211.995 245.289C221.407 242.746 214.121 230.918 217.568 225.004C221.98 217.433 230.172 216.328 237 212L241 219L242 219L238.363 207.981L239 184L235 184L243 163C240.872 158.299 243.007 152.822 236 154C233.191 146.114 236.93 140.567 239 133L232 127L222 127z"/>
<path style="fill:#7e5e5b; stroke:none;" d="M203.333 128.667L203.667 129.333L203.333 128.667z"/>
<path style="fill:#d4b5ad; stroke:none;" d="M99 131L100 134L99 131z"/>
<path style="fill:#bf9c96; stroke:none;" d="M217 132L217 135L219 135L219 132L217 132z"/>
<path style="fill:#7e5e5b; stroke:none;" d="M295 133L296 134L295 133z"/>
<path style="fill:#44342a; stroke:none;" d="M200 140L197 146L204 152L206 152L207 143L208 142C211.297 143.378 212.61 144.395 213 148C219.965 145.774 216.299 138.05 210.714 136.221C206.479 134.834 203.119 137.547 200 140M248 163L249 163L252 162C256.245 156.251 258.264 145.883 254.151 139.344C251.904 135.771 244.581 134.271 242.797 139.148C240.66 144.991 247.857 156.274 248 163z"/>
<path style="fill:#d4b5ad; stroke:none;" d="M97 137L97 140L100 139L100 138L97 137z"/>
<path style="fill:#a37765; stroke:none;" d="M133 137L134 138L133 137z"/>
<path style="fill:#7e5e5b; stroke:none;" d="M5 139L9 142L9 141L5 139z"/>
<path style="fill:#bf9c96; stroke:none;" d="M313 139L313 141L315 139L313 139z"/>
<path style="fill:#7e5e5b; stroke:none;" d="M109 142L108 149L111 151L112 151L114 148L109 142z"/>
<path style="fill:#d4b5ad; stroke:none;" d="M86 144L85 148L86 148L87 146L89 148L88 144L86 144z"/>
<path style="fill:#bf9c96; stroke:none;" d="M314 144L315 145L314 144M190 149L191 150L190 149M316 149L314 154L320 153L316 149z"/>
<path style="fill:#a37765; stroke:none;" d="M154 152L158 155L154 152M43 153L44 154L43 153z"/>
<path style="fill:#bf9c96; stroke:none;" d="M168.333 154.667L168.667 155.333L168.333 154.667z"/>
<path style="fill:#44342a; stroke:none;" d="M205.667 154.333L206.333 154.667L205.667 154.333z"/>
<path style="fill:#d4b5ad; stroke:none;" d="M220 155L221 158C215.498 160.168 217.272 168.61 216 174L219 173L221 179L217 176C208.67 180.709 218.536 187.072 223 190L218 189L214 194L210 206C212.693 206.36 212.38 207.441 212 210L209 209L208 212L205 211C203.512 214.588 201.383 218.328 205 221L205 222L202 225L205 225L206 229L202 227L205 231L211 230L214 214L235 206L233 200L237 196L232.5 188.333L225 187C226.031 179.018 234.141 164.275 223 162L224 155L223 154L220 155M240 156L241 157L240 156z"/>
<path style="fill:#44342a; stroke:none;" d="M204 157L206 161L203 162L208 174L207 169C210.278 166.494 209.929 163.317 206 162L206 161L208 160L204 157z"/>
<path style="fill:#d4b5ad; stroke:none;" d="M80 158L80 160L82 160L82 158L80 158M236 162L238 164L238 162L236 162M76 163L77 164L76 163z"/>
<path style="fill:#44342a; stroke:none;" d="M253.333 163.667L253.667 164.333L253.333 163.667z"/>
<path style="fill:#7e5e5b; stroke:none;" d="M278 164L279 165L278 164M206 168L207 169L206 168z"/>
<path style="fill:#a37765; stroke:none;" d="M276 168L276 171L278 171L278 168L276 168z"/>
<path style="fill:#7e5e5b; stroke:none;" d="M317 168L318 169L317 168z"/>
<path style="fill:#a37765; stroke:none;" d="M234.333 169.667L234.667 170.333L234.333 169.667z"/>
<path style="fill:#7e5e5b; stroke:none;" d="M314 169L314 171L316 171L316 169L314 169z"/>
<path style="fill:#a37765; stroke:none;" d="M231 173L232 174L231 173M127 185L145 188L143 181C135.592 178.887 129.938 175.738 127 185M254 178L255 179L254 178M273 179L278 181L273 179z"/>
<path style="fill:#7e5e5b; stroke:none;" d="M52 197L53 197L53 190C57.5388 188.369 58.9035 185.548 60 181C48.7409 181.241 48.0228 187.756 52 197M131 182L132 183L131 182M133 182L140 186L133 182z"/>
<path style="fill:#44342a; stroke:none;" d="M75 183L76 184L75 183z"/>
<path style="fill:#d4b5ad; stroke:none;" d="M215 187L216 188L215 187z"/>
<path style="fill:#a37765; stroke:none;" d="M283 187L286 189L283 187z"/>
<path style="fill:#7e5e5b; stroke:none;" d="M183.667 189.333L184.333 189.667L183.667 189.333z"/>
<path style="fill:#44342a; stroke:none;" d="M203 189L203 191L205 191L203 189z"/>
<path style="fill:#a37765; stroke:none;" d="M282.667 191.333L283.333 191.667L282.667 191.333z"/>
<path style="fill:#44342a; stroke:none;" d="M202 193L202 197C203.813 195.444 203.813 194.556 202 193M295 195L296 196L295 195z"/>
<path style="fill:#7e5e5b; stroke:none;" d="M302 197L306 200L302 197z"/>
<path style="fill:#44342a; stroke:none;" d="M312 198L313 199L312 198z"/>
<path style="fill:#7e5e5b; stroke:none;" d="M306.667 201.333L307.333 201.667L306.667 201.333M399 201L400 202L399 201M249 202L250 203L249 202M245 204L246 205L245 204z"/>
<path style="fill:#bf9c96; stroke:none;" d="M83 211L84 212L83 211z"/>
<path style="fill:#7e5e5b; stroke:none;" d="M290 214L291.684 257L310.497 289L322 312C321.146 305.242 320.483 297.333 317.926 291C312.556 277.702 302.038 266.876 297.519 253.17C295.896 248.249 297.103 242.166 296.424 237C295.635 230.992 299.618 212.563 290 214z"/>
<path style="fill:#a37765; stroke:none;" d="M282 215C266.774 215.054 277.124 229.696 282 215z"/>
<path style="fill:#bf9c96; stroke:none;" d="M276 221L279 218L276 221M235 220C234.869 223.656 235.775 225.262 239 227L240 226L235 220z"/>
<path style="fill:#7e5e5b; stroke:none;" d="M399 220L399 237L400 237L399 220z"/>
<path style="fill:#a37765; stroke:none;" d="M253 225L254 226L257 221L253 225z"/>
<path style="fill:#d4b5ad; stroke:none;" d="M91 245C92.1323 239.852 93.4069 237.423 99 237L103 226L100 227C93.8416 216.033 72.8179 238.775 91 245z"/>
<path style="fill:#a37765; stroke:none;" d="M163 226L164 227L163 226z"/>
<path style="fill:#bf9c96; stroke:none;" d="M71 228L72 229L71 228z"/>
<path style="fill:#d4b5ad; stroke:none;" d="M197 228L198 229L197 228z"/>
<path style="fill:#a37765; stroke:none;" d="M274 233L275 234L274 233z"/>
<path style="fill:#d4b5ad; stroke:none;" d="M204 242L203 234C196.98 235.61 199.605 240.075 204 242z"/>
<path style="fill:#bf9c96; stroke:none;" d="M201 236L202 237L201 236z"/>
<path style="fill:#d4b5ad; stroke:none;" d="M207 236L208 237L207 236z"/>
<path style="fill:#bf9c96; stroke:none;" d="M203 237L204 238L203 237z"/>
<path style="fill:#7e5e5b; stroke:none;" d="M26 238L27 239L26 238M399 238L400 239L399 238z"/>
<path style="fill:#bf9c96; stroke:none;" d="M159 241L160 242L159 241z"/>
<path style="fill:#7e5e5b; stroke:none;" d="M398 241L397 247C399.764 245.194 399.923 243.652 398 241z"/>
<path style="fill:#d4b5ad; stroke:none;" d="M79 243L79 246L81 245L81 244L79 243z"/>
<path style="fill:#a37765; stroke:none;" d="M293 243L294 246L293 243z"/>
<path style="fill:#d4b5ad; stroke:none;" d="M88 245L87 247L89 247L88 245M69 249L62 266L71 267L78 263L77 259L81 257L77 247L69 249z"/>
<path style="fill:#a37765; stroke:none;" d="M265 247L267 249L265 247M228 248L229 249L228 248M293 253C297.31 264.192 300.988 278.302 312 285C310.763 277.231 299.627 256.943 293 253z"/>
<path style="fill:#44342a; stroke:none;" d="M203 254L204 255L203 254z"/>
<path style="fill:#7e5e5b; stroke:none;" d="M399 258L398 262L399 258z"/>
<path style="fill:#d4b5ad; stroke:none;" d="M81 260L81 262L83 262L81 260z"/>
<path style="fill:#bf9c96; stroke:none;" d="M126 261L131 266C131.605 262.014 129.89 260.86 126 261z"/>
<path style="fill:#d4b5ad; stroke:none;" d="M79 261L80 262L79 261z"/>
<path style="fill:#bf9c96; stroke:none;" d="M133 263L134 264L133 263M138 263L138 266L139 266L138 263M213 265L213 267L215 267L215 265L213 265z"/>
<path style="fill:#7e5e5b; stroke:none;" d="M220 265L221 266L220 265z"/>
<path style="fill:#d4b5ad; stroke:none;" d="M75 266L76 267L75 266M146 269L147 270L146 269z"/>
<path style="fill:#bf9c96; stroke:none;" d="M133 271L134 275L135 275L135 271L133 271z"/>
<path style="fill:#7e5e5b; stroke:none;" d="M216 279L216 283L217 283L216 279z"/>
<path style="fill:#bf9c96; stroke:none;" d="M114 286L114 287L120 290L121 285L122 285L123 287L126 285L126 283L114 286M103 285L102 289L110 291L112 286L103 285z"/>
<path style="fill:#a37765; stroke:none;" d="M198.667 285.333L199.333 285.667L198.667 285.333z"/>
<path style="fill:#7e5e5b; stroke:none;" d="M213 285L214 286L213 285z"/>
<path style="fill:#a37765; stroke:none;" d="M240 286L241 287L240 286z"/>
<path style="fill:#d4b5ad; stroke:none;" d="M72 288L70 290L78 299L78 294C80.8508 293.386 80.8544 292.697 80 290L74 291L72 288z"/>
<path style="fill:#a37765; stroke:none;" d="M314 290L315 293L316 293L314 290z"/>
<path style="fill:#7e5e5b; stroke:none;" d="M390 291L391 298L394 299L395 309L385 309L384 312L386 321L389 321L389 323L384 325L389 329L392 328L393 329L389 339L387 338L383 341L384 347C379.39 347.613 372.159 346.805 368.301 349.614C362.945 353.514 364.049 359.326 362.995 365C361.358 373.821 357.005 379.7 357 389L352 388L350 400L359 400L360 392C364.25 390.762 368.085 380.174 368 376L372 374L372 373L370 372L375.187 356.098L392 345L391 342L400 344C399.192 331.448 400.004 318.588 400 306C399.998 298.358 398.937 291.674 390 291M203 293L204 294L203 293M220 302L221 303L220 302z"/>
<path style="fill:#a37765; stroke:none;" d="M36.3333 307.667L36.6667 308.333L36.3333 307.667z"/>
<path style="fill:#bf9c96; stroke:none;" d="M79 309L81 312L79 309z"/>
<path style="fill:#a37765; stroke:none;" d="M394 315L396 320L397 320L398 314L394 315M399 316L400 317L399 316z"/>
<path style="fill:#bf9c96; stroke:none;" d="M53 317L52 319L54 319L53 317M62 324L61 329C69.7827 334.022 71.5788 330.786 64 324L62 324z"/>
<path style="fill:#a37765; stroke:none;" d="M82 325L84 339C86.9026 339.448 89.6628 340.219 91.1875 343.059C94.5393 349.301 91.2184 356.438 97.2747 362.856C104.067 370.053 112.628 361.93 112 354L117 354L117 353C111.204 348.623 103.453 340.977 96 341L97 338L84 325L82 325z"/>
<path style="fill:#d4b5ad; stroke:none;" d="M135 325L136 326L135 325z"/>
<path style="fill:#7e5e5b; stroke:none;" d="M384.667 327.333L385.333 327.667L384.667 327.333z"/>
<path style="fill:#d4b5ad; stroke:none;" d="M93.3333 329.667L93.6667 330.333L93.3333 329.667z"/>
<path style="fill:#7e5e5b; stroke:none;" d="M390.333 329.667L390.667 330.333L390.333 329.667z"/>
<path style="fill:#bf9c96; stroke:none;" d="M147 330L148 331L147 330z"/>
<path style="fill:#44342a; stroke:none;" d="M394 330L395 331L394 330z"/>
<path style="fill:#d4b5ad; stroke:none;" d="M32.6667 332.333L33.3333 332.667L32.6667 332.333M96 332L97 333L96 332z"/>
<path style="fill:#7e5e5b; stroke:none;" d="M86 334L87 335L86 334z"/>
<path style="fill:#bf9c96; stroke:none;" d="M209.667 334.333L210.333 334.667L209.667 334.333z"/>
<path style="fill:#7e5e5b; stroke:none;" d="M383 334L383 336L385 334L383 334z"/>
<path style="fill:#a37765; stroke:none;" d="M394 335L398 338L394 335z"/>
<path style="fill:#bf9c96; stroke:none;" d="M395 336L396 337L395 336z"/>
<path style="fill:#44342a; stroke:none;" d="M240 337L241 338L240 337z"/>
<path style="fill:#7e5e5b; stroke:none;" d="M215.333 338.667L215.667 339.333L215.333 338.667M383 338L384 339L383 338z"/>
<path style="fill:#bf9c96; stroke:none;" d="M92 339L95 341L92 339z"/>
<path style="fill:#a37765; stroke:none;" d="M392 345L374.619 356.094L370 372L372 374L368 376C367.519 380.626 364.01 389.571 360 392L359 400L378 400L378 397C384.472 401.372 392.474 400 400 400L400 360L396 360L396 359L400 359C399.77 355.044 401.038 348.96 399.396 345.38C397.775 341.844 391.909 339.913 392 345M399 342L400 343L399 342M211 343L210 345L212 345L211 343z"/>
<path style="fill:#44342a; stroke:none;" d="M232 345L233 346L232 345z"/>
<path style="fill:#7e5e5b; stroke:none;" d="M102 361L103 361L105 363C105.637 359.23 108.572 356.01 106.892 352.055C104.932 347.439 96.6602 343.811 94.1713 350.059C92.8046 353.491 98.186 364.164 102 361z"/>
<path style="fill:#d4b5ad; stroke:none;" d="M79 348L79 351L80 351L79 348z"/>
<path style="fill:#bf9c96; stroke:none;" d="M40 354L47 350L40 354z"/>
<path style="fill:#d4b5ad; stroke:none;" d="M87 350L88 351L87 350z"/>
<path style="fill:#bf9c96; stroke:none;" d="M398 351L399 352L398 351M399 352L399 355L400 355L399 352M391 355L392 356L391 355M83 359L84 360L83 359z"/>
<path style="fill:#44342a; stroke:none;" d="M209 359L207 360L207 361L207 362L209 359z"/>
<path style="fill:#bf9c96; stroke:none;" d="M396 359L396 360L400 360L396 359z"/>
<path style="fill:#7e5e5b; stroke:none;" d="M193 360L196 362L196 361L193 360z"/>
<path style="fill:#d4b5ad; stroke:none;" d="M29 363L29 366L30 366L29 363z"/>
<path style="fill:#a37765; stroke:none;" d="M138 363L139 364L138 363z"/>
<path style="fill:#7e5e5b; stroke:none;" d="M204 365L204 368L206 367L206 366L204 365z"/>
<path style="fill:#bf9c96; stroke:none;" d="M388 366L389 370L392 369L392 367L388 366z"/>
<path style="fill:#d4b5ad; stroke:none;" d="M29 367L29 369L31 369L31 367L29 367M113 371L116 369L113 371z"/>
<path style="fill:#7e5e5b; stroke:none;" d="M203 369L204 370L203 369z"/>
<path style="fill:#44342a; stroke:none;" d="M221 370L222 371L221 370z"/>
<path style="fill:#bf9c96; stroke:none;" d="M382 371L382 372L386 370L382 371z"/>
<path style="fill:#d4b5ad; stroke:none;" d="M107 385L117 384L114 375L112 377C110.184 373.237 102.62 368.417 102.377 376.04C102.27 379.385 105.602 382.167 107 385z"/>
<path style="fill:#44342a; stroke:none;" d="M225 372L224 375L225 372M228.333 372.667L228.667 373.333L228.333 372.667z"/>
<path style="fill:#7e5e5b; stroke:none;" d="M215.667 373.333L216.333 373.667L215.667 373.333M235.333 373.667L235.667 374.333L235.333 373.667z"/>
<path style="fill:#44342a; stroke:none;" d="M148 374L149 375L148 374z"/>
<path style="fill:#7e5e5b; stroke:none;" d="M220 375L221 376L220 375z"/>
<path style="fill:#bf9c96; stroke:none;" d="M76 378L76 379C79.2889 380.744 81.1012 381.543 84 379L76 378z"/>
<path style="fill:#44342a; stroke:none;" d="M146 377L147 378L146 377z"/>
<path style="fill:#7e5e5b; stroke:none;" d="M216.667 378.333L217.333 378.667L216.667 378.333M222 379L227 386L222 379M228.333 380.667L228.667 381.333L228.333 380.667z"/>
<path style="fill:#bf9c96; stroke:none;" d="M382 381L382 384L387 384L382 381z"/>
<path style="fill:#7e5e5b; stroke:none;" d="M240 385L241 386L240 385z"/>
<path style="fill:#a37765; stroke:none;" d="M138 387L138 389L140 389L140 387L138 387z"/>
<path style="fill:#bf9c96; stroke:none;" d="M375 387L376 396L379 393L386 394L385 391L378 387L375 387z"/>
<path style="fill:#d4b5ad; stroke:none;" d="M13 388L14 389L13 388z"/>
<path style="fill:#7e5e5b; stroke:none;" d="M224 389L224 390L233 394L232 395L229 394L230 400L246 398L247 398L250 400C247.581 392.808 244.636 389.644 237 388L242 394C237.145 393.135 234.463 393.09 233 388L224 389z"/>
<path style="fill:#bf9c96; stroke:none;" d="M373.333 390.667L373.667 391.333L373.333 390.667z"/>
<path style="fill:#a37765; stroke:none;" d="M119 391L119 393L121 393L121 391L119 391z"/>
<path style="fill:#bf9c96; stroke:none;" d="M389.667 391.333L390.333 391.667L389.667 391.333z"/>
<path style="fill:#44342a; stroke:none;" d="M244 393L244 395L246 395L246 393L244 393z"/>
<path style="fill:#a37765; stroke:none;" d="M106 396L105 399L111 399L106 396M121 396L122 397L121 396z"/>
<path style="fill:#bf9c96; stroke:none;" d="M380.667 396.333L381.333 396.667L380.667 396.333z"/>
<path style="fill:#7e5e5b; stroke:none;" d="M227 397L227 399L229 399L227 397z"/>
<path style="fill:#bf9c96; stroke:none;" d="M377 398L377 399L381 400L380 397L377 398z"/>
<path style="fill:#44342a; stroke:none;" d="M246.333 398.667L246.667 399.333L246.333 398.667z"/>
</svg>
