<?xml version="1.0" standalone="yes"?>
<svg xmlns="http://www.w3.org/2000/svg" width="400" height="400">
<path style="fill:#f57764; stroke:none;" d="M0 0L1 1L0 0z"/>
<path style="fill:#f99688; stroke:none;" d="M0 40L1 40L10 30L15 47L8 48L15 51L14 57L13 57L12 54L2 54L4 63L1 63L1 59L0 59L0 71L5 69L5 77L0 77L2 79L2 80L0 83L13.7269 94.2485L21 85L22 89L24 87L25 87L28 89L31 81L28 84L25 83L24 87L23 87L26 73L28 73L28 80L30 78L31 78L33 88L29 88L29 89L34 109L33 109C30.2366 94.3932 25.3922 101.493 15 99L16 108L19 106L22 116L24 115L24 129C32.5155 130.761 35.6439 127.021 34 118L39 120C40.9312 117.589 42.3618 118.693 45 120L46 117L47 117L51 123C43.5299 137.251 55.1496 150.703 67 158L66 155C70.9762 152.149 67.4165 148.327 66 144C78.8907 140.958 67.1646 124.244 67 118L60 108L54 110L53 94L63 96L64 95L69 85L74 98L79 98L82 94C83.4908 98.9146 87.3058 99.3901 92 100L90 97C92.7868 95.2042 92.3958 93.8564 91 91C95.1534 89.6881 95.7724 87.1423 96 83C101.744 84.5355 117.997 89.2745 107 97L108 92L107 92C103.151 98.0392 96.5722 104.655 102.573 111.787C106.084 115.961 111.325 116.342 113 122C117.581 121.654 119.995 120.16 122 116L119 114L122 113L123 124L129 119L130 119L129 124L130 124L134 122L134 126L135 126L135 122L139 122L136 129L132 132L135 131C136.487 136.083 142.349 135.821 144 131L141 132L142 115L141 115L141 122L135 115C148.492 113.479 135.775 101.842 134 95L131 95L128 90L129 86L125 82L131 77C129.828 73.1122 129.156 71.1378 132 68L131 72L133 69L137 71L136 63L134 67L133 67L133 54L135 47L137 51L141 50L146 56C144.939 60.2566 145.778 63.0224 149 66L150 62L151 65L152 65L151 58L155 57C152.356 46.6911 150.993 40.861 154 30L155 30L156 33L157 33L159 24L169 19L168 22L172 21L173 24L174 24L179 18L180 9C190.297 0.670258 172.812 0 168 0L168 1L169 13L155 13L159 8L155 10C154.805 8.19373 154.274 5.07092 153 8L152 8L154 0L84 0L85 4C77.0516 -0.151642 71.1155 0 62 0L63 17L60 16L62 12L55 4L57 0L15 0L1.02778 1.60339L0.115741 12.8302L0 40z"/>
<path style="fill:#f57764; stroke:none;" d="M57 0L55 4L62 12C60.6603 14.6334 60.4442 15.3984 63 17C63.7957 10.3004 66.0261 0.713562 57 0M81 0L85 4L84 0L81 0M152 8L153 8L154 6L155 10L159 8L155 13C160.535 15.8816 163.334 14.3908 169 13L170 1L161 0L162 6L157 5L158 0C153.194 0.784454 152.253 3.39499 152 8z"/>
<path style="fill:#f99688; stroke:none;" d="M157 5L162 6C162.47 0.581818 157.965 -0.762482 157 5z"/>
<path style="fill:#f57764; stroke:none;" d="M182 0L180 9L179 18L174 24L173 24L172 21L168 22L169 19L159 24L157 33L156 33L155 30L154 30C150.008 39.7449 151.183 47.7274 155 57L151 58L152 65L151 65L150 62L149 66L146 56L141 50L137 51L135 47L133 54L133 67L134 67L136 63L137 71L131 72L132 68C128.421 70.5936 129.425 73.2617 131 77L125 82L129 86L128 90L131 95L134 95C135.095 102.355 147.755 112.396 135 115L141 122L141 115L142 115L141 132L144 131C141.413 135.175 137.606 135.256 135 131L132 132L136 129L139 122L135 122L135 126L134 126L134 122L130 124L129 124L130 119L129 119L123 124C123.326 119.708 124.852 113.902 119 114L122 116L113 122L100.554 106.999L107 92L108 92L107 97C109.995 96.355 112.576 89.0661 109.667 86.7222C106.996 84.5706 99.3912 83.4132 96 83C95.5574 86.9678 94.5785 89.123 91 91L90 97L92 100C87.4201 99.0956 84.1964 98.358 82 94L79 98L74 98L69 85C64.8871 87.1245 63.4892 90.4843 64 95L63 96L53 94L54 110L60 108L67 118L73 132L66 144C66.8512 148.372 69.532 151.448 66 155L67 158C55.8998 147.762 44.7455 139.246 51 123L47 117L46 117L45 120C42.4908 117.935 39.9031 115.807 39 120L34 118C35.0069 126.738 32.2557 129.79 24 129L24 115L22 116L19 106L16 108L15 99C25.0167 102.218 29.5212 95.0786 33 109L34 109C33.7934 103.361 33.2812 92.8982 29 89L29 88L33 88L31 78L30 78L28 80L28 73L26 73L23 87L24 87L25 83L28 84L31 81L28 89L25 87L24 87L22 89L21 85L13.7269 93.6543L0 83L2 86L2 87C-2.47845 92.9114 0 105.749 0 113L4 112L3 115L12 109L10 117L6 114L6 124L2 122L0.361111 138.889L7.69444 146.028L13 156L12 160L7 155L4 156L4 152L1 151L0 151L3 160C-2.1524 163.718 0 175.136 0 181L17 190L19 187L28 200C15.9202 205.769 22.453 213.081 24 223L45 216C42.4548 209.33 42.8874 206.932 50 205L50 208L69 212L76 205L77 205L78 210L93 216L90 227L93 228L94 228L94 224C106.955 223.332 96.3381 242.003 96 250L93 243L90 240C82.5513 244.836 90.4031 255.477 88.8025 261.951C87.3395 267.869 82.8556 264.51 83 260C81.3072 258.611 79.8066 257.097 78.1914 255.62C74.8517 252.566 68.4158 251.714 67.8812 258.019C67.6233 261.06 70.6905 262.937 70.8912 265.83C71.2673 271.252 64.474 275.497 60 276L60 275L63 275L56 267C50.2431 266.89 51.3808 261.521 51 257C46.8768 259.407 47.4279 264.181 43.7716 267.03C37.9644 271.555 24.631 267.774 21 262C13.252 264.858 18.7925 271.241 22 276L5 276C4.33843 269.698 5.28072 265.616 12 264L12 262L7 262L7 258L11 258L11 256L4 258C2.17231 253.193 1.03323 250.249 7 249L7 248L5 243L0 243L0 279C0 282.446 -1.32379 289.49 1.6034 292.012C9.45216 298.772 12.6674 287.941 18.2238 286.997C23.1358 286.162 26.7189 292.53 31.9606 291.631C36.7216 290.814 39.4679 285.368 44 283.742C50.5466 281.393 61.8783 284 69 284L61 290L60 287L59 287C55.5128 290.854 53.2159 290.985 49 288L48 288C44.8854 291.492 35.6947 298.333 41 303L36 320L16 316.455L4.14815 318.29L1 313L0 313L0 385L9 389L11 372C3.63979 367.841 6.98917 356.951 15.9954 360.635C22.5358 363.31 21.0001 368.026 24.5995 372.787C26.5881 375.417 30.0847 376.353 31.8318 379.209C37.8419 389.034 27.7414 394.557 20 396L17 392L17 393L19 395C13.8031 395.595 9.72852 394.801 7 400L64.9105 399.87L84.0856 393.38L99 400L99 394L108 392L107 400L135 400C133.508 395.738 129.833 394.555 127.812 390.871C126.022 387.609 128.459 383.565 127.293 380.001C125.325 373.982 119.204 371.459 118 379C109.963 374.983 114.729 368.406 110.972 362.34C107.507 356.746 100.61 358.9 100 351L103 351C102.618 345.953 99.158 344.287 97.6211 339.91C95.1452 332.86 99.5476 329.176 90 326C89.3607 330.038 78.1274 346.725 75.1219 337.923C72.221 329.427 78.3856 318.374 77 310L63 317L60 311L52 322L55 322C55.5874 335.172 64.3409 335.768 71.3966 344.314C73.5805 346.959 72.7898 350.876 74.1481 353.91C75.8108 357.625 79.1125 360.368 81 364L65 360L64 363C66.4622 364.231 70.1166 367.029 66 366L71.7477 383.802L60 393L55 392L54 376L54 368C43.7017 365.093 44.7884 359.144 46 351L47 351L54 351L54 350L51 349C49.8761 343.073 44.8748 345.993 41 348L39 334C24.3973 332.872 41.1091 323.201 46 321L49 323L45 317C47.6857 308.486 51.7082 310.235 58 314L53 296L76 286.408L91 294C92.126 288.469 101.626 278.006 107.956 280.076C111.967 281.388 112.058 285.703 115.302 287.671C118.607 289.677 125.111 290.077 129 291C128.839 283.178 125.863 273.531 134 269C133.32 264.838 134.226 262.908 138 261L139 269L136 268L136 273C139.478 275.242 141.813 276.702 142 281C151.599 287.301 149.809 297.827 145 307L145 308C146.695 311.049 145.114 312.234 142 313L126 334C133.438 337.37 141.58 335.428 149 333C155.007 343.02 162.694 343.599 173 345L173 346C158.796 350.82 171.552 365.601 175.154 374C178.133 380.945 179.462 387.033 170 387L169 391L164 390L164 386L159 387L160 391L142 399L142 400C155.146 399.72 181.236 405.781 187 391L179 390L179 389C189.666 388.04 201.573 379.75 193 369L192 369L184 382C180.655 375.702 177.138 368.256 179 361L176 364C167.004 355.103 173.195 352.938 175 343C170.55 341.39 165.065 342.84 161.093 340.807C154.758 337.564 147.054 323.257 140 335C131.377 327.803 143.289 320.052 147.223 313C149.849 308.292 152.621 294.45 151.785 289.001C150.143 278.288 139.213 276.455 141 264C148.124 265.162 149.404 258.727 155.04 255.92C163.772 251.572 177.651 251.737 181.894 240.999C184.365 234.746 174.051 217.036 171 211L170 211C172.574 219.173 179.708 230.105 179.794 238.576C179.933 252.266 157.399 252.472 149 251L148 255L140 250L138 256L135 255C131.387 258.155 128.218 256.839 128 252C115.062 252.195 125.688 244.767 126.071 238.985C126.325 235.156 123.359 230.988 123 227C128.793 225.413 131.819 221.974 132 216L120 205C115.181 207.779 109.174 209.578 109 202L114 202C114.695 195.828 125.88 193.769 131.169 195.252C137.942 197.152 147.454 209.29 149 195L154 196L154 195L147 194L147 201L132.816 192.247L116.039 194.24L99 187L99 186L104 185L108 160C111.862 162.627 116.996 169.565 121.133 170.678C127.187 172.307 132.847 166.297 138 164L137 158L142 160L142 155C146.85 157.223 149.683 156.027 153 152L154 152L157 154L162 148L173 146L174 146L177 134C173.757 132.261 173.056 130.656 173 127L170 128C171.053 125.112 171.588 123.823 169 122L169 125C162.686 123.847 157.68 123.923 154 118L153 118L152 121C146.649 118.052 146.529 110.599 146 105L157 116L157 119L163 120L161 117L170 116L171 116L186 118L189 113C183.418 107.6 184.887 103.461 192 101L194 90C198.532 90.5197 201.516 90.8728 203 86L193 82C195.553 77.2419 205.86 62.5725 192 68L193 72L179 71L179 68L172 66L179 66L180 62L177 61L180 56L178 56L179 53L177 53L177 37L177 36L175 34L180 31L182 35L182 30C174.431 30.2703 183.141 20.7344 184 18L187 23L186 23L183 22L183 23L192.509 37.1342L208 46L209 46L207 31C221.162 24.2648 217.475 10.5123 227 1L227 0L216 5L218 0C206.825 0.0394897 207.939 8.88828 209 18L208 18L205 16L207 19L202 30L192.036 26.7361L194.647 18.8302L195 0L192 3L182 0z"/>
<path style="fill:#f99688; stroke:none;" d="M188 0L188 1L192 3L188 0M195 0L194.323 18.8302L191.712 27.5525L202 30L207 19L205 16L208 18L209 18L210 0L195 0M218 0L216 5L221 0L218 0z"/>
<path style="fill:#e54933; stroke:none;" d="M207 31L209 46L208 46L193.21 37.1342L183 23L183 22L186 23L187 23L184 18C181.977 21.0381 174.907 29.1144 182 30L182 35L180 31L175 34L177 36L177 37C169.882 42.0843 177.309 47.2821 177 53L179 53L178 56L180 56L177 61L180 62L179 66L172 66L173 69L179 68L179 71L193 72L192 68C205.089 64.9 194.964 76.661 193 82L203 86C200.876 90.1168 198.381 90.2038 194 90L192 101C184.52 102.63 182.288 108.204 189 113L186 118L171 116L170 116L161 117L163 120L157 119L157 116L146 105C146.207 110.39 146.082 119.038 152 121L153 118L154 118C156.716 124.419 162.753 124.574 169 125L169 122L170 122L171 122L170 128L173 127C172.5 130.895 173.162 132.785 177 134L174 146L173 146L162 148L157 154L154 152L153 152C149.181 155.308 146.964 156.545 142 155L142 160L137 158L138 164L122.054 170.638L108 160L104 185L99 186L99 187L115.09 194.513L131.907 192.698L147 201L147 194C163.426 197.401 172.893 213.004 177.41 228C180.571 238.491 183.969 244.248 171 250L171 251L184 246L188 241L188 236L198 232C199.655 236.069 206.079 242.401 207.201 233.981C207.969 228.208 203.263 221.353 204.732 216.055C206.777 208.682 215.902 211.963 215 219L222 224C230.118 219.513 221.021 211.054 225.77 205.607C227.703 203.39 232.351 204.298 235 204L236 205L235 208L241 207L251 213L256 214L257 197L262 213L264 209C267.905 212.283 271.7 215.309 275 210L282 212L282 213L275 221L271 216C267.723 216.853 246.334 221.394 260 226C260.815 233.103 270.043 237.113 265.185 244.977C261.63 250.732 252.846 246.69 251 253C237.257 251.468 240.336 271.716 237.973 279.871C235.981 286.745 232.024 286.831 235 295C224.236 299.504 217.878 306.805 217 319L214 318L215 321L214 316C210.736 316.99 207.185 320.933 203.961 320.979C201.275 321.018 198.881 318.644 196.17 318.264C184.067 316.566 172.843 319.795 175 333L168 334L169 336C161.472 338.221 157.775 336.366 160 328C153.203 324.212 143.95 327.051 139 333L138 333C136.514 325.014 145.839 317.91 149 311L148 311C143.666 317.251 129.751 329.245 140 335C149.272 324.443 153.123 338.057 161.093 341.254C165.139 342.877 170.589 341.87 175 343C172.26 352.2 165.451 356.431 176 364L179 361C176.758 367.675 179.919 376.52 184 382L192 369L193 369C199.568 380.14 190.052 387.282 179 389L179 390L187 391L182 400C189.137 399.451 191.626 394.374 189 388L194 385L201 384L201 383C199.147 378.884 197.114 370.571 201.573 367.317C204.674 365.054 208.453 366.083 210.262 361.941C214.175 352.981 210.63 341.89 221 337C224.791 342.827 231.652 336.127 226 332C229.49 325.749 229.63 318.97 238 319C238.531 325.045 240.334 329.371 246 332C249.145 329.149 251.79 329.393 252 334L249 333L249 341L250 341L251 338L256 345L247 343L240 339L241 348L255 347L260 351L259 349L260 349L263 353L267 352L266 357L257 358L258 361C252.539 363.982 250.071 368.94 250 375C244.451 373.694 237.044 373.476 234 379L226 375L223 383C211.254 384.211 206.087 393.885 197 399L197 400L221 400L218.907 390.044L226 377L239 385C241.218 380.854 252.055 374.181 257 374.916C263.32 375.855 264.376 380.809 272 379C276.874 386.44 291.07 381.656 295 391L302 389C309.279 381.489 310.442 377.489 308 367L294 378L295 373L285 370L277 374L277 372L281 372L275 369L279 359C278.279 355.362 279.002 352.137 275 351L279 349C281.712 337.47 270.498 337.417 264.754 330.416C262.099 327.181 262.785 320.874 263 317L265 317L265 326L266 326C268.811 318.881 275.319 314.417 282 311L277 303C277.053 314.595 266.185 313.513 258 316L260 319C248.155 318.678 250.288 313.645 246.348 305.015C244.349 300.636 239.723 298.077 239.078 292.999C238.585 289.118 241.059 286.562 241.738 283C242.377 279.642 239.597 277.236 239.599 274C239.601 268.294 243.445 266.077 241 260L246 254C250.117 254.606 251.353 252.026 255.09 251.022C263.977 248.636 267.555 248.153 270 238C275.248 237.997 279.339 238.149 283 234L284 234C286.671 236.718 288.851 237.336 292 235L293 235L302 239L309 234L309 233L308 229L305 228L305 226L317 221L317 220L311 218L311 209C303.828 212.107 290.88 219.919 296 205C284.629 199.56 275.047 205.578 275 188L246 178L247 181L244 179L243 179L242 179L235 185L234 181L237 182L237 177L230 180L230 170L233 172L232 159L235 160L234 155C237.688 152.597 236.537 149.656 235 146L234 146C235.373 151.787 232.174 153.803 230.499 159C227.215 169.19 221.855 186.975 209 189L210 195C206.17 194.44 194.292 191.867 191.289 192.982C179.47 197.372 185.507 214.751 175 220C172.55 208.317 158.727 189.646 145 193L145 190L143 190L146 198L141 195L137 195L136 190L141 191L141 190L138 189L145 185L149 190L149 188L155 190L157 180L161 181L161 177L174 176L173 173L176 173L175 170L188 173L187 169C190.92 167.762 194.629 167.148 196 163L200 163L207.925 156.557L230 136L235 145L236 145L232 135C237.88 131.885 235.824 126.347 234 121L231 122C229.019 118.646 227.169 117.228 224 120L223 120C217.842 106.743 229.983 107.045 232 96L230 99L229 99C226.138 96.0338 214.579 109.077 218 114L218 115C211.529 123.725 228.857 120.416 229 129L224 127L224 131C216.871 132.311 216.01 128.046 215 122L214 122L214 127L208 125L213 120L208 109L207 113L206 113C206.278 106.084 206.429 100.215 200 96C210.222 88.7347 221.745 73.2118 203 67L205 60C208.114 59.5694 207.897 56.913 208 54L199 54L205 51L205 46L206 46L206 49C214.104 48.6725 216.356 54.8802 222.129 58.8518C225.465 61.1472 230.167 61.8016 234 63L237.826 46.9105L234.248 37L241 16L231 36C231.324 41.9385 227.903 45.9874 223 49L227 23L230 22L229 18L231 20L235 19C227.125 8.52747 230.803 9.94345 235 0C220.949 0.0480957 223.709 10.1218 218.543 19.9606C216.19 24.4425 211.06 28.1215 207 31z"/>
<path style="fill:#cd1c07; stroke:none;" d="M235 19L229 18L230 22L227 23L223 49C228.565 46.7012 231.606 42.0108 231 36C238.19 34.8278 238.88 14.8394 242.546 8.99536C244.873 5.28683 249.062 3.60077 251 0C238.319 0.10495 219.982 4.70334 235 19z"/>
<path style="fill:#e54933; stroke:none;" d="M239 0L239 1L244 1L239 0M251 0L239 15L253 0L251 0z"/>
<path style="fill:#f57764; stroke:none;" d="M253 0C243.265 8.64474 242.116 15.0786 238.397 26.5756C237.258 30.0992 234.245 31.9716 234.099 36C233.953 40.0093 237.137 43.1879 237.039 46.9105C236.87 53.3683 230.734 55.5457 234 63L221 57.6667L216 51.6667L206 46L205 46L205 51L199 54L208 54C208 57.8538 207.691 60.6728 205 60L203 67C221.42 75.7607 209.046 86.873 200 96C205.335 101.137 206.087 105.895 206 113L207 113L208 109L213 120L208 125L214 127L214 122L215 122C215.361 128.386 216.582 133.019 224 131L224 127L229 129C230.347 118.705 213.216 125.373 218 115L218 114C216.35 109.647 224.569 97.2742 229 99L230 99L232 96C229.009 105.988 216.482 107.755 223 120L224 120C227.447 117.933 228.522 119.043 231 122L234 121C235.497 126.774 237.273 130.978 232 135C234.485 140.663 239.169 149.726 234 155L235 160L232 159L233 172L230 170L230 180L237 177L237 182L234 181L235 185L238 184L242 179L243 179L244 179L247 181L246 178L275 188C275.01 205.673 283.453 200.539 296 205C288.786 219.452 304.315 213.18 311 209L311 218L317 220L317 221L305 226L305 228L308 229L309 233L309 234L302 239L293 235L292 235C288.479 236.637 287.175 236.204 284 234L283 234L270 238C266.019 248.409 257.095 253.62 246 254L241 260C242.546 265.821 239.289 268.567 239.287 274C239.286 277.042 241.933 279.553 241.513 282.576C241.002 286.261 238.332 288.972 238.68 292.999C239.152 298.474 244.236 301.317 246.348 306.004C249.848 313.771 248.57 320.442 260 319L258 316C266.037 314.07 278.6 314.823 277 303L282 311C275.195 313.448 267.766 318.747 266 326L265 326L265 317L263 317C262.543 320.886 261.611 326.974 264.073 330.416C269.353 337.796 281.016 337.434 279 349L275 351L279 359C275.25 361.384 275.245 364.822 275 369L281 372L277 372L277 374C280.902 373.873 282.915 373.401 285 370L295 373L294 378L308 367C308.934 378.476 307.974 379.774 302 389L295 391C292.414 381.76 278.061 384.826 272 379C264.559 380.355 263.212 375.183 257 374.465C251.698 373.853 240.7 380.148 239 385L226 377L218.694 389.108L221 400L264 400L255 375C258.455 378.001 260.067 382.111 264.566 383.917C269.39 385.853 273.224 383.43 277.776 384.094C280.383 384.474 281.166 387.684 283.259 388.948C289.087 392.467 293.39 391.137 293 400L323 400L320 395C315.674 395.912 313.065 395.212 310 392L315 392C311.687 385.481 310.893 378.666 320 378L321 370L319 370C320.39 363.912 320.706 360.076 326 356L326 360C330.389 356.899 330.65 352.744 329 348L334 350C333.593 343.92 330.531 338.703 325 336L322 343C315.72 342.271 310.657 344.977 307 350C311.054 352.391 311.357 354.632 310 359L307 352C297.597 352.179 286.507 348.654 289 337C277.818 334.669 274.496 337.396 270 325L277 319L284 330L290 333L291 333C294.576 332.065 295.035 334.922 296 338L292 338L295 347L298 344L304 349L306 341L302 338C306.008 335.356 304.956 330.235 304 326L308 325C307.181 314.635 304.916 311.705 296 307L295 307C289.443 310.178 281.301 302.879 279 298C274.059 300.351 269.803 304.288 270 310L260 313L259 312L259 306C248.634 308.138 243.935 292.668 254 289L255 292L256 292L257 288C250.552 283.681 262.939 277.358 254 272L257 265C252.658 261.83 250.984 259.175 253 254L254 257L255 257L256 254L272 257L270 253L276 259C272.604 259.967 272.229 263.697 276.417 263.569C284.26 263.33 285.724 259.901 294 263L293 257L278 259L277 253L277 252L281 248L275 245L276 239L279 239L283 239C289.474 244.781 291.811 245.029 292 255C297.494 256.486 306.365 251.995 310.728 254.997C313.509 256.911 312.616 260.01 309.877 261.341C306.217 263.12 301.699 261.049 298.214 263.19C292.079 266.958 297.577 278.069 302 281C298.704 287.062 297.115 291.071 303 296C308.039 290.271 313.081 291.943 320 292C319.081 295.805 324.508 307.462 329.264 302.338C332.297 299.071 325.015 286.932 323 284C327.167 283.023 329.906 282.844 333 286L341 284C339.047 274.481 342.685 268.788 349.079 261.961C351.768 259.088 359.057 253.482 357.454 248.965C355.931 244.675 345.466 238.87 342.287 244.423C339.506 249.28 347.433 255.232 341.682 260.643C333.877 267.987 322.681 251.724 323 245C317.58 238.38 319.282 226.968 328 224L329 221L330 221L334 227C333.46 214.64 315.728 188.568 303 201L304 199L303 199C285.727 207.48 279.793 175.082 266.675 169.6C257.879 165.924 253.493 176.229 244.407 167.277C241.13 164.048 243.911 159.799 247 158L246 141C252.072 144.597 254.747 146.512 262 146L260 136C255.527 136.376 253.741 134.291 251 131L247 135C246.68 130.232 238.742 124.561 239.613 121.6C240.458 118.725 244.419 117.118 246.575 115.385C257.264 106.789 258.269 108.216 271.09 111.164C276.15 112.328 279.284 110.553 283 115L279 120L283 120C286.465 127.816 286.438 135.907 296 138C293.801 142.597 293.686 145.885 298 149L295 150C293.78 159.666 297.914 172.052 310 169C311.038 178.134 316.57 182.351 325 181L327 165C323.135 165.672 322.503 167.21 323 171L312 171L312 167L309 168L310 163L307 163C305.848 154.182 302.319 149.488 308 141C309.026 149.363 314.003 161.302 322 164L326 152L313 142L313 141C316.208 137.562 315.546 134.418 315 130L312 129L311 129L308 140L307 140L308 130L307 130L303 135C303.057 130.188 303.639 127.447 308 125L308 129L309 129L310 120L319 114L320 120C308.569 120.891 319.874 132.163 326 133L319 111C323.727 111.204 325.16 113.926 327 118L337 118L336 125L341 126C340.325 120.292 339.593 118.19 344 114L345 114C347.066 116.508 350.399 117.314 352.437 120.059C356.93 126.11 356.364 137.704 357 145C349.267 145.978 344.578 147.3 344 156C342.576 156.341 341.304 156.494 340.046 157.317C327.811 165.323 342.572 166.494 346.049 171.978C350.008 178.223 348.418 194.007 342 198L343 201C351.225 199.797 358.037 201.471 360 211L361 211L361 209L362 209L362 214L379 221L380 224L382 222L388 225L387 229L390 228L389 224L390 224C394.272 232.254 394.808 240.686 395 250L400 250C400 243.625 403.112 226.501 396 224L397 216L400 210L390 209L392 214C388.843 211.137 388.767 208.998 390 205L396 208L396 202L400 205L400 197C394.636 198.277 387.592 199.898 385 194L393 193L397 196L393 193L393 192L398 191L397 188C404.37 182.685 398.909 161.475 400 153L399 153C395.229 160.512 396.843 166.986 397 175L396 183L389 180L388 183L384 184L377.75 167L379.765 156.148L375 153L378 129L382 124C372.757 118.392 388.507 108.776 391 104L394 105C394 100.746 393.704 89.7709 399 89L400 69L399 69C395.695 72.463 393.154 71.895 389 70L388 80L387 83L390 79L396 82L399 80L390.721 96.8958L372 117C372.726 123.802 369.689 132.799 375 138C372.861 141.054 370.352 149.115 370.722 152.925C371.201 157.857 375.865 160.242 372 165C372.823 174.507 352.886 169.545 365 181C353.041 185.752 362.272 205.022 374 204L379 217L375 218C373.114 215.293 369.959 215.012 367.818 212.571C362.428 206.428 357.868 198.789 349 197L352 191C351.407 184.475 347.993 178.747 349.228 172.019C350.251 166.444 361.388 156.932 354 152C356.332 148.402 364.296 141.052 357 139C356.501 129.898 358.182 123.243 352.03 115.149C348.117 110.001 338.452 110.326 337 117C334.732 115.998 330.393 116.042 328.693 114.311C324.697 110.242 328.892 104.474 320 106L317 96L315 98L314 98C313.109 91.2659 302.706 62.5105 294 71C290.243 66.5608 289.479 63.5945 291 58C300.307 56.3872 292.869 44.9532 300 39L300 37C290.284 26.0555 307.42 10.7401 308 0L293 0L292 6L296 4L292 25L291 25L286 21L285 37L284 37C283.997 33.0129 284.598 29.3323 281 27C281.461 29.7436 282.294 32.5144 279 33L275 40L273 39L272 44L278 43L277 47L274 46L271 54L266 56L263 53L269 57L261 59L263 63L259 67L256 66L256 63L259 59L255 59C254.844 54.2209 251.716 51.7608 250.931 47.4097C250.005 42.2821 256.905 21.1322 244 27L242 22L247 22L247 21L244 20L251 10L253 0z"/>
<path style="fill:#f99688; stroke:none;" d="M251 10C246.041 10.7535 245.75 15.9154 244 20L247 21L247 22L242 22L244 27L246 25C256.533 30.7639 249.041 38.3827 250.525 47.4097C251.238 51.7411 254.652 54.375 255 59L259 59L256 63L256 66L259 67L263 63L261 59C264.536 59.6176 266.91 60.1886 269 57L263 53L266 56L271 54L274 46L277 47L278 43L272 44L273 39L275 40L279 33C282.466 32.5626 281.711 29.9964 281 27L284 37L285 37L286 21L291 25L292 25L296 4L292 6L293 0C280.762 0 252.656 -6.1662 251 10z"/>
<path style="fill:#e54933; stroke:none;" d="M308 0C307.086 8.46927 289.227 29.1399 300 37L300 39C290.423 44.2919 301.137 55.0484 291 58C289.127 63.2939 289.584 67.2962 294 71C303.928 65.3897 312.332 90.5197 314 98L315 98L317 96L320 106C328.953 105.533 324.093 111.34 328.618 114.948C330.515 116.461 334.653 116.328 337 117C339.4 110.445 348.087 110.509 352.03 116.062C357.496 123.76 355.997 130.448 357 139C362.482 142.491 355.905 147.805 354 152C359.697 158.3 351.163 164.2 349.43 170.129C347.386 177.117 350.453 184.305 352 191L349 197C358.794 200.33 367.852 211.203 375 218L379 217L374 204C363.019 203.063 353.883 187.543 365 181C354.936 167.847 374.371 175.42 372 165C377.002 161.348 371.779 157.423 371.177 152.925C370.648 148.975 373.083 141.447 375 138L372 117C385.803 107.478 390.783 92.9949 399 80L396 82L390 79L391 82L387 83L388 80L389 70C402.352 78.5281 400 56.7236 400 49L397 47L390 46C390.475 51.0484 389.152 53.164 386 57L385 57L382 52L379 54L373.498 30.2847L369.049 15.0895L375 5L369 5L371 3L371 2L364 0C366.266 6.07812 367.421 9.72052 363 15L363 16L363 27C376.994 31.2041 373.206 45.4556 370.754 56C369.651 60.7434 367.421 65.6096 372 69L373 76L376 75L377 79L373 79L373 80L378 79L379 79C380.817 82.8881 388.377 91.869 388.539 95.2307C388.823 101.153 376.726 107.57 372 106L374 98L376 100L376 91L373 92L372 89L369 90L365 78L369 78C366.684 75.4417 364.412 73.8634 362 77L351 79L345 87L345 93L344 93C343.902 88.9493 343.655 86.1351 340 84L340 81C343.307 79.7263 344.14 78.5464 344 75L341 76C337.97 71.2548 329.189 68.874 328 76C324.438 76.1796 320.825 76.1306 320 80L330 78L329 73L330 73L330 75L331 75L330 72L334 72L333 75C344.687 80.8899 340.55 98.0857 330 102L324 98L326 86L321 81C311.381 79.1343 308.234 73.3913 302 67L305 66C303.915 62.024 304.918 60.619 308 58L310 22L314 24C313.545 20.6369 311.641 16.6459 312.14 13.2855C313.126 6.65576 319.066 0.362305 308 0z"/>
<path style="fill:#cd1c07; stroke:none;" d="M314 0L311.683 13.2855L314 24L310 22C307.634 32.5593 306.2 47.3622 308 58C304.173 60.1538 303.118 61.9324 305 66L302 67C307.321 74.4134 311.339 78.3904 320 82L320 77L327 76L327 75L321 76L321 75L324 74C318.957 62.5201 319.628 57.1616 326 46L324 46C326.187 41.6506 325.442 37.894 331 37L332 33L335 35L339 22L336 23L341 20L342 3L352 6C353.427 9.72058 355.084 10.5093 359 10C360.779 16.5237 364.514 28.014 361 34L361 35L366 42L370 41C367.282 53.1537 362.967 63.2779 371 75L365 74L365 75L369 78L365 78L369 90L372 89L376 91L376 100L374 98L372 106C376.996 108.347 389.578 101.463 389.168 95.2307C388.943 91.8022 381.135 82.4649 379 79L378 79L373 80L373 79L377 79L376 75L373 76L372 69C362.862 58.7759 386.492 31.3055 363 27L363 16C366.401 11.9758 369.38 2.42776 361.891 0.317902C348.093 -3.56976 328.368 0 314 0z"/>
<path style="fill:#f57764; stroke:none;" d="M370 0L369 5L375 5C362.661 20.4135 377.607 36.3443 379 54L382 52L385 57L386 57C389.992 53.4814 390.911 51.2352 390 46L397 47L398 50L399 50C403.345 35.3008 400 15.365 400 0L384 1L381 3C378.52 -0.824707 374.192 0.000457764 370 0z"/>
<path style="fill:#f99688; stroke:none;" d="M380 0L381 3L384 1L392 1L380 0z"/>
<path style="fill:#f57764; stroke:none;" d="M5 1L2 2L3 6L5 6L5 1M30.3333 1.66666L30.6667 2.33334L30.3333 1.66666M38 2L41 5L42 2L41 1L38 2M275 1L276 2L275 1M65.6667 2.33334L66.3333 2.66666L65.6667 2.33334M73 2L75 7L73 2M112 2L112 4L114 4L114 2L112 2M132 2L130 6C132.649 5.43237 133.355 4.41217 132 2M278 2L278 7L279 7L278 2z"/>
<path style="fill:#f99688; stroke:none;" d="M301.333 2.66666L301.667 3.33334L301.333 2.66666z"/>
<path style="fill:#f57764; stroke:none;" d="M286 3L286 5L288 5L288 3L286 3z"/>
<path style="fill:#910503; stroke:none;" d="M342 3L341 20L336 23L339 22L335 35L332 33L331 37C324.953 37.4715 325.712 41.0905 324 46L326 46C318.737 55.5207 317.687 63.9376 324 74L321 75L321 76L328 76L327 72L335 73C341.461 72.1997 345.372 75.3521 344 82L340 82L340 83L347 86C352.496 76.147 360.201 73.6424 371 75L365.623 55L370 41L366 42L361 35L361 34C365.076 29.0576 361.216 15.7551 359 10L352 6L342 3z"/>
<path style="fill:#f57764; stroke:none;" d="M87 4L87 8L90 8L90 13L94 14L95 10L94 6L87 4M275 4L276 5L275 4z"/>
<path style="fill:#910503; stroke:none;" d="M354 4L354 7L355 7L354 4z"/>
<path style="fill:#f57764; stroke:none;" d="M33.3333 5.66666L33.6667 6.33334L33.3333 5.66666M109 5L114 10L114 5L113 5L109 5M76 6L77 7L76 6z"/>
<path style="fill:#f99688; stroke:none;" d="M166.333 6.66666L166.667 7.33334L166.333 6.66666z"/>
<path style="fill:#f57764; stroke:none;" d="M13 8L14 9L13 8M22 15C27.3352 14.8255 30.4261 12.6825 33 8L22 15M69 8L69 11L71 10L71 9L69 8M179 8L180 9L179 8M128 12L132 9L128 12M2 10L2 13L3 13L2 10M55 10L58 12L55 10z"/>
<path style="fill:#e54933; stroke:none;" d="M186 15L190 14C188.569 9.6947 185.311 10.5319 186 15z"/>
<path style="fill:#f57764; stroke:none;" d="M76 11L77 12L76 11M86 12L88 15L86 12z"/>
<path style="fill:#cd1c07; stroke:none;" d="M352 12L350 17L357 23C357.69 19.6961 357.921 17.9123 355 16L355 21L354 21L352 17L352 12z"/>
<path style="fill:#f57764; stroke:none;" d="M134 13L135 14L134 13z"/>
<path style="fill:#e54933; stroke:none;" d="M211 13L215 17L211 13M399 13L400 14L399 13z"/>
<path style="fill:#f57764; stroke:none;" d="M0 14L1 15L0 14z"/>
<path style="fill:#e54933; stroke:none;" d="M394 14L389 21C392.251 19.6903 396.421 17.7648 394 14z"/>
<path style="fill:#f57764; stroke:none;" d="M5 15L5 20L6 20L5 15M96 15L96 17L98 17L98 15L96 15M105 15L105 17L107 17L107 15L105 15z"/>
<path style="fill:#cd1c07; stroke:none;" d="M225 15L226 16L225 15z"/>
<path style="fill:#f57764; stroke:none;" d="M285 15L284 18L285 15M80 17L80 19L82 19L80 17M113 18L111 28L113 28L117 23L113 18M17 19L13 26L17 19M64 19L62 20L62 26L67 23L68 23L71 25L64 19M97 20L100 24L104 22L97 20M127 19L124 25C126.756 23.4868 128.001 22.1368 127 19z"/>
<path style="fill:#e54933; stroke:none;" d="M216.333 19.6667L216.667 20.3333L216.333 19.6667z"/>
<path style="fill:#cd1c07; stroke:none;" d="M309 19L310 20L309 19z"/>
<path style="fill:#f99688; stroke:none;" d="M375 19L376 20L375 19z"/>
<path style="fill:#f57764; stroke:none;" d="M53.3333 20.6667L53.6667 21.3333L53.3333 20.6667M108 20L108 22L110 22L110 20L108 20z"/>
<path style="fill:#f99688; stroke:none;" d="M64 21L66 23L64 21z"/>
<path style="fill:#f57764; stroke:none;" d="M82.3333 21.6667L82.6667 22.3333L82.3333 21.6667M17 25L21 29L25 25L23 33L19 38L26 47L29 46L30 50L31 50L21 35L25 34C25.4005 29.913 26.9973 28.6294 31 28L33 24L33 28L35 28L35 22L17 25M282 22L282 24L284 24L282 22M37 23L37 28L34 29L35 34L39 34L39 42L40 42L42 40L45 43L41 47L45 53C43.6381 60.5469 42.7725 67.1047 34 69L33 73C37.5726 75.6194 41.0847 75.9086 46 74L52 78L54 65L57 67L58 60L54 54L55 54L55 56L56 56L64 49L60 38L56 33L45 32C45.9133 26.5531 42.5582 26.1699 39 23L37 23M90 24L90 31C83.4135 32.0504 84.3123 36.5251 85 42L92 43C89.5851 48.1821 87.7367 55.7094 96 55L97 59L98 59C97.6763 54.1432 100.982 48.1034 95 46L94 29L96 31L97 31L90 24z"/>
<path style="fill:#f99688; stroke:none;" d="M188 25L189 26L188 25z"/>
<path style="fill:#f57764; stroke:none;" d="M194 25L195 26L194 25M3 26L4 29L3 26M70 26L73 30L73 37L74 37L78 34L70 26z"/>
<path style="fill:#f99688; stroke:none;" d="M172 26L172 28L174 28L174 26L172 26M241 26L242 27L241 26z"/>
<path style="fill:#f57764; stroke:none;" d="M299 27L299 28L302 29L302 26L299 27M59 31L62 30L63 31L62 40L69 34C67.6016 29.456 61.1898 24.4727 59 31z"/>
<path style="fill:#f99688; stroke:none;" d="M160 27L160 29L162 29L162 27L160 27M288 27L287 29L289 29L288 27z"/>
<path style="fill:#f57764; stroke:none;" d="M48 28L47 29L47 30L48 31L49 31L50 30L50 29L48 28M109 28L107 29L107 30L109 28z"/>
<path style="fill:#f99688; stroke:none;" d="M248.667 28.3333L249.333 28.6667L248.667 28.3333M392 28L392 35L397 31L392 28M239 29L236 33L239 32L235 37L238 37L245 41L246 41C246 36.4755 246.983 31.6539 242 30L242 34L241 34L239 29z"/>
<path style="fill:#f57764; stroke:none;" d="M0 43L5 41L1 63L4 63L2 54L12 54L13 57L14 57L15 51L8 48L15 47L10 30C5.37741 32.4516 1.23521 37.9094 0 43M31 30L30 32L32 32L31 30M4 31L5 32L4 31M113.333 31.6667L113.667 32.3333L113.333 31.6667z"/>
<path style="fill:#e54933; stroke:none;" d="M168.667 31.3333L169.333 31.6667L168.667 31.3333z"/>
<path style="fill:#f57764; stroke:none;" d="M17.3333 32.6667L17.6667 33.3333L17.3333 32.6667M27 32L28 33L27 32M150 32L151 33L150 32z"/>
<path style="fill:#f99688; stroke:none;" d="M204 32L205 33L204 32z"/>
<path style="fill:#f57764; stroke:none;" d="M107.667 34.3333L108.333 34.6667L107.667 34.3333M178.333 34.6667L178.667 35.3333L178.333 34.6667M240 34L241 35L240 34M27.3333 35.6667L27.6667 36.3333L27.3333 35.6667z"/>
<path style="fill:#f99688; stroke:none;" d="M158.667 35.3333L159.333 35.6667L158.667 35.3333z"/>
<path style="fill:#e54933; stroke:none;" d="M309.333 35.6667L309.667 36.3333L309.333 35.6667z"/>
<path style="fill:#f57764; stroke:none;" d="M96 36L97 37L96 36z"/>
<path style="fill:#e54933; stroke:none;" d="M174 36L175 37L174 36z"/>
<path style="fill:#f57764; stroke:none;" d="M241 38L244 37L241 38M262 36L262 38L264 38L264 36L262 36z"/>
<path style="fill:#f99688; stroke:none;" d="M47.3333 37.6667L47.6667 38.3333L47.3333 37.6667M56 37L48 46L56 46L55 42L56 37z"/>
<path style="fill:#f57764; stroke:none;" d="M180 37L182 50L183 50L184 43C180.898 43 182 39.6328 182 37L180 37z"/>
<path style="fill:#f99688; stroke:none;" d="M3 38L4 39L3 38M6 38L7 39L6 38M87.3333 38.6667L87.6667 39.3333L87.3333 38.6667z"/>
<path style="fill:#f57764; stroke:none;" d="M111 38L110 42L113 38L111 38z"/>
<path style="fill:#f99688; stroke:none;" d="M161 38L164 41L161 38z"/>
<path style="fill:#f57764; stroke:none;" d="M96 39L99 42L96 39z"/>
<path style="fill:#cd1c07; stroke:none;" d="M327.667 39.3333L328.333 39.6667L327.667 39.3333M332 39L333 40L332 39z"/>
<path style="fill:#f57764; stroke:none;" d="M68 40L69 41L68 40z"/>
<path style="fill:#e54933; stroke:none;" d="M4 41L0 43L0 54C4.66695 50.5197 6.62509 46.5091 4 41z"/>
<path style="fill:#f99688; stroke:none;" d="M44 41L45 42L44 41M47 41L46 43L48 43L47 41z"/>
<path style="fill:#f57764; stroke:none;" d="M119 42L121 46L122 46L119 42z"/>
<path style="fill:#f99688; stroke:none;" d="M27 43L26 45L28 45L27 43z"/>
<path style="fill:#f57764; stroke:none;" d="M105.667 43.3333L106.333 43.6667L105.667 43.3333M129 43L128 45L130 45L129 43z"/>
<path style="fill:#f99688; stroke:none;" d="M238 43L239 44L238 43z"/>
<path style="fill:#cd1c07; stroke:none;" d="M327 43L328 44L327 43z"/>
<path style="fill:#f57764; stroke:none;" d="M38 44L39 45L38 44z"/>
<path style="fill:#f99688; stroke:none;" d="M242.333 44.6667L242.667 45.3333L242.333 44.6667z"/>
<path style="fill:#f57764; stroke:none;" d="M83 45L80 47L82 53L89 46L83 50L85 46L83 45z"/>
<path style="fill:#f99688; stroke:none;" d="M60.3333 46.6667L60.6667 47.3333L60.3333 46.6667z"/>
<path style="fill:#f57764; stroke:none;" d="M115 46L112 47L116 51L115 46M118 46L118 48L120 48L120 46L118 46z"/>
<path style="fill:#cd1c07; stroke:none;" d="M236 46L237 47L236 46z"/>
<path style="fill:#f57764; stroke:none;" d="M36 47L37 48L36 47M132.333 47.6667L132.667 48.3333L132.333 47.6667z"/>
<path style="fill:#f99688; stroke:none;" d="M155.667 47.3333L156.333 47.6667L155.667 47.3333z"/>
<path style="fill:#f57764; stroke:none;" d="M19 48L20 56L21 56L23 49L19 48M395 49L394 55L395 55L395 49z"/>
<path style="fill:#f99688; stroke:none;" d="M57 50L58 51L57 50z"/>
<path style="fill:#e54933; stroke:none;" d="M206 51L206 53L208 53L208 51L206 51z"/>
<path style="fill:#f57764; stroke:none;" d="M77 52L73 54C71.8586 60.1222 76.9795 63.4956 82 66L82 63L83 63L95 77L89 55C84.7666 55 78.1457 55.4171 79 52L77 52M87 52L88 53L87 52M129 52L130 53L129 52z"/>
<path style="fill:#f99688; stroke:none;" d="M47 53L48 54L47 53z"/>
<path style="fill:#e54933; stroke:none;" d="M176 53L177 54L176 53z"/>
<path style="fill:#f57764; stroke:none;" d="M124 54L122 69L123 69L127 56L131 57L130 54L124 54z"/>
<path style="fill:#cd1c07; stroke:none;" d="M188 54L189 67C193.703 63.0437 191.795 59.4104 191 54L188 54z"/>
<path style="fill:#f57764; stroke:none;" d="M193 55L194 56L193 55M197 55L198 56L197 55M38 56L38 58L40 58L40 56L38 56M259 56L260 57L259 56z"/>
<path style="fill:#f99688; stroke:none;" d="M265 95L269 99L283 94L283 96L279 101L288 104L288 97L293 96L291 86L288 86L286 66L283 67L280 59L281 56C275.869 57.6202 267.123 60.6615 268.373 67.7909C268.861 70.5779 271.988 71.9305 271.883 74.9537C271.71 79.9732 267.319 90.5111 265 95z"/>
<path style="fill:#f57764; stroke:none;" d="M69 57L69 59L71 59L71 57L69 57z"/>
<path style="fill:#e54933; stroke:none;" d="M75 58L75 59L78 60L78 57L75 58z"/>
<path style="fill:#f99688; stroke:none;" d="M51 58L51 63L55 60L51 58z"/>
<path style="fill:#f57764; stroke:none;" d="M195 58L196 59L195 58M42 59L43 60L42 59M61 59L62 60L61 59z"/>
<path style="fill:#f99688; stroke:none;" d="M168 59L168 60L171 60L168 59z"/>
<path style="fill:#f57764; stroke:none;" d="M22 60L22 67L23 67L22 60M29.3333 60.6667L29.6667 61.3333L29.3333 60.6667M33.6667 60.3333L34.3333 60.6667L33.6667 60.3333M100 60L100 62L102 62L102 60L100 60z"/>
<path style="fill:#e54933; stroke:none;" d="M245 60L243 65L242 65L241 65L239 63L238 76C245.589 76.5879 244.237 82.9589 244 89C248.54 90.3809 248.107 92.9844 245 96L246 100L241 110L236 116L245.999 113.522L258 104L263 82C267.319 81.2814 268.102 79.0708 269 75L266 69C261.739 71.2046 261.986 73.6338 263 78C252.887 77.2215 253.776 64.25 245 60z"/>
<path style="fill:#cd1c07; stroke:none;" d="M194 61L194 63L196 63L196 61L194 61z"/>
<path style="fill:#f57764; stroke:none;" d="M32 62L33 63L32 62M35.6667 62.3333L36.3333 62.6667L35.6667 62.3333z"/>
<path style="fill:#f99688; stroke:none;" d="M79 62L80 63L79 62z"/>
<path style="fill:#e54933; stroke:none;" d="M190.333 62.6667L190.667 63.3333L190.333 62.6667z"/>
<path style="fill:#f57764; stroke:none;" d="M399 62L399 66L400 66L399 62M27 63L27 64L30 64L27 63M39 63L40 64L39 63M59 63L60 64L59 63M0 64L0 67L1 67L0 64z"/>
<path style="fill:#e54933; stroke:none;" d="M176 64L177 65L176 64z"/>
<path style="fill:#f57764; stroke:none;" d="M5 66L11 78L12 78L14 70L10 65L5 66M63 65L64 66L63 65M33 67L34 68L33 67z"/>
<path style="fill:#e54933; stroke:none;" d="M225 67L225 71L226 71L225 67z"/>
<path style="fill:#f57764; stroke:none;" d="M59 68L55 71L54 81L64 83L65 72L61 68L59 68M66.3333 68.6667L66.6667 69.3333L66.3333 68.6667z"/>
<path style="fill:#f99688; stroke:none;" d="M149 68L150 69L149 68M159 69L158 74L166 78L164 70L168 68L159 69z"/>
<path style="fill:#e54933; stroke:none;" d="M195.667 68.3333L196.333 68.6667L195.667 68.3333z"/>
<path style="fill:#f57764; stroke:none;" d="M0 77L5 77L5 69C0.939536 70.7013 0.142459 72.7039 0 77M28 70L31 72L28 70M68 70L70 72L68 70M71 70L72 71L71 70z"/>
<path style="fill:#cd1c07; stroke:none;" d="M372.667 70.3333L373.333 70.6667L372.667 70.3333z"/>
<path style="fill:#f57764; stroke:none;" d="M20.6667 71.3333L21.3333 71.6667L20.6667 71.3333z"/>
<path style="fill:#f99688; stroke:none;" d="M38 71L39 72L38 71z"/>
<path style="fill:#f57764; stroke:none;" d="M75 71L73 84L79 82L77 71L75 71M108.333 71.6667L108.667 72.3333L108.333 71.6667z"/>
<path style="fill:#e54933; stroke:none;" d="M228 71L229 72L228 71z"/>
<path style="fill:#cd1c07; stroke:none;" d="M328 71L329 72L328 71M334 71L335 72L334 71z"/>
<path style="fill:#f57764; stroke:none;" d="M88 72L89 73L88 72z"/>
<path style="fill:#e54933; stroke:none;" d="M141 72L137 77C142.542 77.6888 141.109 84.1192 140 88L142 91L149 91L150 96L154 91L151 88C158.227 89.8754 164.041 89.9833 170 85C165.628 82.0543 158.478 76.3782 156 84L151 85C148.486 78.4417 148.021 74.7966 141 72z"/>
<path style="fill:#cd1c07; stroke:none;" d="M327.333 72.6667L327.667 73.3333L327.333 72.6667z"/>
<path style="fill:#f57764; stroke:none;" d="M330 72L331 75L330 75L330 73L329 73L330 78C321.818 76.2495 317.43 85.5899 326 86L324 98L330 102C340.682 99.11 345.292 78.7289 333 75L334 72L330 72z"/>
<path style="fill:#cd1c07; stroke:none;" d="M337 72L337 73L341 74L337 72z"/>
<path style="fill:#910503; stroke:none;" d="M319 73L320 74L319 73z"/>
<path style="fill:#f57764; stroke:none;" d="M165.333 74.6667L165.667 75.3333L165.333 74.6667z"/>
<path style="fill:#cd1c07; stroke:none;" d="M341 76L344 75L341 76M351 78L362 77L364 75L351 78z"/>
<path style="fill:#f57764; stroke:none;" d="M20 75L21 76L20 75M141 75L143 78L141 75z"/>
<path style="fill:#f99688; stroke:none;" d="M176 75L175 77L177 77L176 75z"/>
<path style="fill:#cd1c07; stroke:none;" d="M344.333 75.6667L344.667 76.3333L344.333 75.6667z"/>
<path style="fill:#f99688; stroke:none;" d="M298.667 76.3333L299.333 76.6667L298.667 76.3333z"/>
<path style="fill:#e54933; stroke:none;" d="M333 76L334 77L333 76z"/>
<path style="fill:#f57764; stroke:none;" d="M33 77L33 80L34 80L33 77M37 77L38 85L43 87L43 81L40 82L40 77L37 77z"/>
<path style="fill:#cd1c07; stroke:none;" d="M344 78L342 81C344.391 81.0123 345.117 80.3129 344 78z"/>
<path style="fill:#f57764; stroke:none;" d="M0.666667 79.3333L1.33333 79.6667L0.666667 79.3333z"/>
<path style="fill:#cd1c07; stroke:none;" d="M206 79L207 80L206 79z"/>
<path style="fill:#f57764; stroke:none;" d="M126 80L127 81L126 80M143 80L145 85L143 80z"/>
<path style="fill:#910503; stroke:none;" d="M318 80L319 81L318 80z"/>
<path style="fill:#cd1c07; stroke:none;" d="M350 80L349 83L350 80z"/>
<path style="fill:#f57764; stroke:none;" d="M45 84L48 81L45 84z"/>
<path style="fill:#cd1c07; stroke:none;" d="M340 81L341 82L340 81z"/>
<path style="fill:#f57764; stroke:none;" d="M51 82L50 88L53 91L54 91L55 82L51 82z"/>
<path style="fill:#f99688; stroke:none;" d="M295 82L295 87L301 87L295 82M333 82L334 85L329 84C329.372 88.8605 331.355 89.4599 335 92L336 92L335 87L337 82L333 82z"/>
<path style="fill:#f57764; stroke:none;" d="M359 82L359 84L362 84L362 82L359 82z"/>
<path style="fill:#e54933; stroke:none;" d="M218 83L217 88L220 83L218 83z"/>
<path style="fill:#f99688; stroke:none;" d="M233 83L233 86L234 86L233 83z"/>
<path style="fill:#cd1c07; stroke:none;" d="M340 83L341 84L340 83M348 83L347 86L342 84L344 93L345 93L345 87L348 83z"/>
<path style="fill:#f57764; stroke:none;" d="M60 84L59 87L62 85L60 84M108.667 84.3333L109.333 84.6667L108.667 84.3333z"/>
<path style="fill:#e54933; stroke:none;" d="M397 84L395 85L395 86L397 84z"/>
<path style="fill:#f99688; stroke:none;" d="M0 85L0 88L2 87L2 86L0 85z"/>
<path style="fill:#f57764; stroke:none;" d="M36 85L37 91L38 91L36 85z"/>
<path style="fill:#e54933; stroke:none;" d="M222 86L221 89L224 90L225 89L224 86L222 86z"/>
<path style="fill:#f99688; stroke:none;" d="M236 86L235 92L235 93L239 96L236 86z"/>
<path style="fill:#e54933; stroke:none;" d="M199 87L200 88L199 87z"/>
<path style="fill:#f99688; stroke:none;" d="M399 87L397 88L394 105L391 104C388.166 107.603 371.316 120.227 382 124L378 129L375 153C382.794 155.358 377.487 161.244 377.47 167C377.449 174.222 379.66 178.594 384 184L388 183L389 180L396 183C397.668 180.271 399.613 177.499 397 175L400 113L399 87z"/>
<path style="fill:#e54933; stroke:none;" d="M185 88L186 89L185 88z"/>
<path style="fill:#f99688; stroke:none;" d="M303 88L302 94L301 94L300 91L296 92L296 98L296 99C299.958 102.704 319.012 120.455 316.771 103.83C316.023 98.2843 310.114 95.7371 310 90L303 88z"/>
<path style="fill:#f57764; stroke:none;" d="M341 88L341 91L342 91L341 88z"/>
<path style="fill:#e54933; stroke:none;" d="M192.667 89.3333L193.333 89.6667L192.667 89.3333z"/>
<path style="fill:#f99688; stroke:none;" d="M337 89L338 90L337 89z"/>
<path style="fill:#e54933; stroke:none;" d="M67 91L69 94L67 91M99 91L101 94L101 91L99 91M23.3333 92.6667L23.6667 93.3333L23.3333 92.6667z"/>
<path style="fill:#f99688; stroke:none;" d="M243 92L244 93L243 92M17 93L17 98L20 96L20 95L17 93M5 94L2 97L2 101L5 94z"/>
<path style="fill:#e54933; stroke:none;" d="M183 94L185 97L183 94z"/>
<path style="fill:#f57764; stroke:none;" d="M269.667 94.3333L270.333 94.6667L269.667 94.3333M302 94L303 95L302 94M45.6667 95.3333L46.3333 95.6667L45.6667 95.3333M50 95L51 96L50 95z"/>
<path style="fill:#f99688; stroke:none;" d="M140 97L141 98L140 97M144 97L145 98L144 97z"/>
<path style="fill:#e54933; stroke:none;" d="M151 97L152 98L151 97M154 97L155 98L154 97z"/>
<path style="fill:#f99688; stroke:none;" d="M177 97L178 98L177 97M263 97L264 98L263 97M265 97L266 98L265 97M274 97L275 98L274 97z"/>
<path style="fill:#e54933; stroke:none;" d="M153 100L154 101L153 100z"/>
<path style="fill:#f57764; stroke:none;" d="M285.333 100.667L285.667 101.333L285.333 100.667z"/>
<path style="fill:#f99688; stroke:none;" d="M70 102L72 105L70 102M148 102L148 104L150 104L150 102L148 102z"/>
<path style="fill:#e54933; stroke:none;" d="M180 106L183 102L180 106z"/>
<path style="fill:#f57764; stroke:none;" d="M21 103L21 106L22 106L21 103z"/>
<path style="fill:#e54933; stroke:none;" d="M146 103L147 104L146 103z"/>
<path style="fill:#f99688; stroke:none;" d="M55 104L55 108L58 104L55 104z"/>
<path style="fill:#f57764; stroke:none;" d="M27 105L27 109L28 109L27 105z"/>
<path style="fill:#e54933; stroke:none;" d="M65 105L67 107L67 105L65 105M81 105L81 114L75 114C75.7893 119.871 71.7365 126.546 78 130L77 135L83 134L84 128L87 131L87 132L85 139L87 137L88 137L90 139L91 132L90 132L88 134L88 130L93 134L94 134L95 129L93 129C93.7198 124.631 92.521 122.226 88 124L81 117L85 111L83 105L81 105z"/>
<path style="fill:#f57764; stroke:none;" d="M116 105L115 114L119 114L122 105L120 107L116 105z"/>
<path style="fill:#f99688; stroke:none;" d="M222 118L229 117L232 105C223.196 106.499 222.396 109.763 222 118z"/>
<path style="fill:#cd1c07; stroke:none;" d="M337 105L330 113L330 114C335.116 113.831 345.341 110.347 348 106L342 107L337 105z"/>
<path style="fill:#f99688; stroke:none;" d="M247 135L251 131C253.359 134.96 255.269 137.045 260 136L262 146L246 141C244.192 147.836 244.615 151.374 247 158C243.64 159.178 240.699 163.947 243.643 167.277C245.628 169.522 252.038 173.417 255.039 172.687C259.023 171.718 262.298 167.624 266.675 170.018C279.709 177.145 285.793 208.138 304 199L303 201C305.537 199.324 307.62 196.241 311 196.427C319.989 196.92 333.37 219.36 334 227L330 221L329 221L328 224C319.481 225.723 316.183 239.487 323 245C321.864 252.301 332.179 266.614 340.852 261.933C348.459 257.827 339.784 249.066 342.966 244.458C346.485 239.364 355.981 245.364 357.249 249.676C358.31 253.282 351.211 258.665 349.079 260.985C342.744 267.879 338.051 274.427 341 284L333 286C330.595 282.29 326.918 282.845 323 284C324.688 287.47 331.291 297.663 328.901 301.535C325.62 306.851 319.593 295.205 320 292C313.445 291.865 306.969 289.372 303 296C298.094 290.144 299.492 287.603 302 281C298.224 277.22 292.092 266.778 299.109 263.258C303.139 261.236 308.832 264.234 312.214 260.3C317.537 254.108 305.978 254.021 303 254.701C299.29 255.549 295.74 255.547 292 255C293.185 245.038 290.071 243.733 283 239L279 239L276 239L275 245L281 248L277 252L277 253L278 259L293 257L294 263C285.866 258.42 284.08 262.858 276.083 263.194C271.844 263.373 273.257 260.013 276 259L270 253L272 257L256 254L255 257L254 257L253 254C250.091 258.898 252.142 262.658 257 265L254 272C260.738 277.281 250.455 286.598 257 288L256 292L255 292L254 289C243.457 291.28 248.053 309.115 259 306L259 312L260 313L270 310C270.153 304.584 274.848 300.947 279 298C280.336 302.707 290.442 311.927 295 307L296 307C303.909 312.925 306.66 314.456 308 325L304 326C304.64 330.402 305.13 334.6 302 338L306 341L304 349L298 344L295 347L292 338L296 338C295.316 334.94 294.632 331.092 291 333L290 333L284 330L277 319L270 325C273.152 337.738 277.842 335.984 289 337C285.707 348.491 297.424 353.406 307 352L310 359C311.988 354.663 311.696 351.798 307 350C311.547 345.6 315.572 343.131 322 343L325 336C329.74 339.499 333.212 344.072 334 350L329 348C330.024 353.023 329.715 356.166 326 360L326 356C320.043 359.046 319.911 363.995 319 370L321 370L320 378L317 377C311.549 382.172 310.355 385.169 315 392L310 392C312.283 395.952 315.897 396.324 320 395C323.312 401.581 330.626 400 337 400L334 389L337 390C339.083 383.836 340.093 375.291 332 374C333.509 366.542 340.1 362.906 347 361L347 360L345 351L351 352L352 358L353 358L354 351L356 353L357 353L369 345L369 344C365.473 341.584 362.656 339.984 360 344C357.109 337.152 350.275 327.905 360 323C363.362 336.455 371.092 332.759 382 329L383 334L389 338L386 340L385 340L384 338L383 338L380 344C383.072 346.887 384.062 348.864 383 353L386 352C384.352 357.683 380.319 358.563 375 357C372.039 361.873 366.467 363.276 361 363L358 368L358 369L360 370L351 368C353.861 380.182 359.597 379.72 370 381C366.502 386.934 364.156 387.034 358 385C358.344 388.49 356.866 392.114 361 393C359.302 403.185 375.426 400 382 400L386 384L392 384L393 390L395 386L396 386L398 391L397 387C401.217 386.096 400 381.644 400 378L393 380L388 374L391 368L385 368L386 359L390 360C391.084 365.568 396.113 361.754 400 361L400 336L399 336L398 338L391 338L390 334C399.047 331.47 400 320.81 400 313L400 250L395 250C394.926 241.008 395.382 231.451 390 224L389 224L387 229L388 225L380 224L379 221L362 214L362 209L361 209L361 211L360 211C358.857 200.952 351.35 199.092 343 201L342 198C349.069 195.002 350.141 177.127 346.154 171.313C342.595 166.124 329.723 165.949 340.046 157.892C341.273 156.935 342.579 156.555 344 156C345.092 147.662 349.605 146.379 357 145C356.361 131.018 355.924 122.781 345 114L344 114C338.651 117.68 339.82 120.23 341 126L336 125L337 118L327 118C325.593 113.526 324.117 110.268 319 111L326 133C320.651 131.735 309.373 121.714 320 120L319 114L310 120L309 129L308 129L308 125C303.006 126.836 303.017 130.125 303 135L307 130L308 130L307 140L308 140L311 129L312 129L315 130L313 141L313 142L326 152L322 164C314.429 160.364 309.748 149.37 308 141C301.24 147.63 305.256 155.371 307 163L310 163L309 168L312 167L312 171L323 171C323.055 167.497 323.61 166.093 327 165L325 181C316.656 181.761 311.817 177.854 310 169C299.345 170.688 289.675 157.592 298 149C294.284 145.385 294.306 142.764 296 138C286.425 134.988 287.514 127.427 283 120L279 120L283 115C280.166 109.86 275.919 112.02 271 110.762C257.674 107.354 256.736 106.652 245.715 115.385C243.602 117.06 240.406 118.378 239.407 121.086C238.01 124.875 246.351 130.148 247 135z"/>
<path style="fill:#e54933; stroke:none;" d="M68 107L70 109L70 107L68 107z"/>
<path style="fill:#f57764; stroke:none;" d="M200 108L198 112C200.649 111.432 201.355 110.412 200 108z"/>
<path style="fill:#f99688; stroke:none;" d="M3 115L4 112L0 113L2 119L0 136L1 136L2 122L6 124L6 114L10 117L12 109L3 115z"/>
<path style="fill:#cd1c07; stroke:none;" d="M191 109L194 112L191 109z"/>
<path style="fill:#f57764; stroke:none;" d="M47 111L47 112L52 114L52 110L47 111z"/>
<path style="fill:#e54933; stroke:none;" d="M69 112L70 113L69 112z"/>
<path style="fill:#f99688; stroke:none;" d="M20 114L21 115L20 114z"/>
<path style="fill:#e54933; stroke:none;" d="M146 114L146 119L147 119L146 114z"/>
<path style="fill:#f57764; stroke:none;" d="M228 114L229 115L228 114M323 114L324 115L323 114M0 116L2 119L0 116z"/>
<path style="fill:#f99688; stroke:none;" d="M11 116L11 121L9 119L8 119L7 124L11 122C11.0079 132.166 15.3547 136.951 24 142C27.3147 136.463 26.3851 130.998 19 131L20 121L18 118L16 120L15 120L11 116z"/>
<path style="fill:#e54933; stroke:none;" d="M287 116L287 122L292 121C292.094 117.342 290.469 116.582 287 116z"/>
<path style="fill:#cd1c07; stroke:none;" d="M203 117L204 118L203 117z"/>
<path style="fill:#e54933; stroke:none;" d="M297 120L297 125C301.107 124.814 302.225 122.506 304 119L297 120z"/>
<path style="fill:#cd1c07; stroke:none;" d="M179 119L179 121L181 121L181 119L179 119z"/>
<path style="fill:#e54933; stroke:none;" d="M232 119L233 120L232 119z"/>
<path style="fill:#cd1c07; stroke:none;" d="M157 120L160 122L160 121L157 120z"/>
<path style="fill:#f57764; stroke:none;" d="M169 120L170 121L169 120z"/>
<path style="fill:#cd1c07; stroke:none;" d="M204 120L203 124L207 126L208 122L204 120z"/>
<path style="fill:#f57764; stroke:none;" d="M82.6667 121.333L83.3333 121.667L82.6667 121.333z"/>
<path style="fill:#f99688; stroke:none;" d="M103 121L104 122L103 121M120.333 121.667L120.667 122.333L120.333 121.667z"/>
<path style="fill:#f57764; stroke:none;" d="M241 121L242 122L241 121z"/>
<path style="fill:#f99688; stroke:none;" d="M316.333 121.667L316.667 122.333L316.333 121.667z"/>
<path style="fill:#f57764; stroke:none;" d="M75 122L76 123L75 122z"/>
<path style="fill:#cd1c07; stroke:none;" d="M179.333 122.667L179.667 123.333L179.333 122.667M201 122L201 126L202 126L201 122z"/>
<path style="fill:#e54933; stroke:none;" d="M205.333 122.667L205.667 123.333L205.333 122.667M293 122L296 126L295 122L293 122z"/>
<path style="fill:#f99688; stroke:none;" d="M338 122L338 124L340 122L338 122z"/>
<path style="fill:#cd1c07; stroke:none;" d="M190 123L191 124L190 123z"/>
<path style="fill:#f57764; stroke:none;" d="M77 124L76 128L81 128L77 124z"/>
<path style="fill:#cd1c07; stroke:none;" d="M231 124L231 125L233 127L234 127L231 124z"/>
<path style="fill:#e54933; stroke:none;" d="M227 126L228 127L227 126z"/>
<path style="fill:#cd1c07; stroke:none;" d="M368 126L361 133L363 136L367 151L368 151L370 126L368 126z"/>
<path style="fill:#f57764; stroke:none;" d="M139 127L141 129L141 127L139 127M184 144L186 142L187 142L188 153C191.401 150.915 191.873 148.902 192 145L199 150L199 144L198 144L196 147L194 135L190 139L189 139L191 131C189.515 130.395 188.156 129.637 186.69 128.995C174.488 123.657 183.77 139.371 184 144z"/>
<path style="fill:#cd1c07; stroke:none;" d="M203.667 127.333L204.333 127.667L203.667 127.333z"/>
<path style="fill:#f99688; stroke:none;" d="M101.333 128.667L101.667 129.333L101.333 128.667z"/>
<path style="fill:#f57764; stroke:none;" d="M343 128L344 129L343 128z"/>
<path style="fill:#e54933; stroke:none;" d="M111 130L116 134L111 130z"/>
<path style="fill:#cd1c07; stroke:none;" d="M233 130L234 131L233 130z"/>
<path style="fill:#f57764; stroke:none;" d="M317 130L318 131L317 130z"/>
<path style="fill:#e54933; stroke:none;" d="M39 131L40 136L41 136L39 131z"/>
<path style="fill:#f57764; stroke:none;" d="M136.667 131.333L137.333 131.667L136.667 131.333M327 131L328 132L327 131M343 131L344 132L343 131z"/>
<path style="fill:#f99688; stroke:none;" d="M375 131L376 132L375 131z"/>
<path style="fill:#e54933; stroke:none;" d="M118 132C114.593 138.163 112.346 145.31 122 146L121 149L126 148L118 132M134.333 136.667L134.667 137.333L134.333 136.667M136 136L137 139L140 137L136 136z"/>
<path style="fill:#cd1c07; stroke:none;" d="M229 136C224.263 147.862 203.561 151.418 200 163L196 163L187 169L188 173L175 170L176 173L173 173L174 176L161 177L161 181L157 180L155 190L149 188L149 190L145 185L138 189L141 190L141 191L136 190L137 195L141 195C141.37 197.983 143.084 197.863 146 198L143 190L145 193C158.717 191.101 171.603 208.374 175 220C184.571 217.122 181.257 202.361 188.055 195.881C192.579 191.569 203.547 195.135 210 195L209 189C215.446 188.504 217.856 183.747 221.59 179.039C229.535 169.022 242.401 145.728 229 136z"/>
<path style="fill:#f99688; stroke:none;" d="M76 138L77 139L76 138z"/>
<path style="fill:#e54933; stroke:none;" d="M111 138L108 142L111 138M168 138L169 139L168 138z"/>
<path style="fill:#cd1c07; stroke:none;" d="M225 139L226 140L225 139z"/>
<path style="fill:#f99688; stroke:none;" d="M239 139L240 140L239 139M0 140L1 153L4 152L4 156L7 155L12 160L13 156L0 140z"/>
<path style="fill:#e54933; stroke:none;" d="M139 140L140 141L139 140M164 140L165 144L166 144L164 140z"/>
<path style="fill:#f99688; stroke:none;" d="M34 158L41 156L41 142L40 141C32.192 143.744 30.7907 151.321 34 158z"/>
<path style="fill:#e54933; stroke:none;" d="M149 149L152 148L152 143L149 149M45 144C44.7054 151.36 52.1949 146.215 45 144M163 144L164 145L163 144z"/>
<path style="fill:#f99688; stroke:none;" d="M107 145L110 148L107 145M100.667 146.333L101.333 146.667L100.667 146.333M113 146L114 147L113 146z"/>
<path style="fill:#e54933; stroke:none;" d="M163.333 146.667L163.667 147.333L163.333 146.667z"/>
<path style="fill:#f57764; stroke:none;" d="M177 154L179 146C173.668 147.438 172.008 150.579 177 154M307 146L307 149L308 149L307 146z"/>
<path style="fill:#cd1c07; stroke:none;" d="M362.333 146.667L362.667 147.333L362.333 146.667z"/>
<path style="fill:#f57764; stroke:none;" d="M399 146L399 151L400 151L399 146z"/>
<path style="fill:#e54933; stroke:none;" d="M189 147L190 148L189 147z"/>
<path style="fill:#cd1c07; stroke:none;" d="M360 147L361 148L360 147z"/>
<path style="fill:#f57764; stroke:none;" d="M0 148L1 149L0 148z"/>
<path style="fill:#f99688; stroke:none;" d="M12 148L13 149L12 148M28 148L27 149L27 150L28 151L29 151L30 150L30 149L28 148z"/>
<path style="fill:#cd1c07; stroke:none;" d="M360 149C360.743 154.841 364.699 161.38 360 166L360 171L366 170L368 155L365 156L362 154L362 149L360 149M363 149L365 151L365 149L363 149z"/>
<path style="fill:#e54933; stroke:none;" d="M49 150L49 158L52 161L58 158L59 162L60 162L61 155L58 156C56.0276 151.914 53.4912 150.338 49 150z"/>
<path style="fill:#f99688; stroke:none;" d="M112 150C109.953 160.43 117.233 165.712 124 156L124 155L112 150z"/>
<path style="fill:#e54933; stroke:none;" d="M146 151L147 152L146 151M149.333 152.667L149.667 153.333L149.333 152.667z"/>
<path style="fill:#f57764; stroke:none;" d="M194.667 152.333L195.333 152.667L194.667 152.333z"/>
<path style="fill:#f99688; stroke:none;" d="M71.3333 155.667L71.6667 156.333L71.3333 155.667M243 155L244 156L243 155z"/>
<path style="fill:#e54933; stroke:none;" d="M135.333 156.667L135.667 157.333L135.333 156.667z"/>
<path style="fill:#f57764; stroke:none;" d="M161 156L161 161L162 161L163 156L161 156M166.333 156.667L166.667 157.333L166.333 156.667z"/>
<path style="fill:#f99688; stroke:none;" d="M399 156L399 163L400 163L399 156z"/>
<path style="fill:#e54933; stroke:none;" d="M0 157L0 161L3 160L0 157z"/>
<path style="fill:#f57764; stroke:none;" d="M144 159L146 162L146 159L144 159M168 159L168 163L169 163L170 159L168 159M172.333 159.667L172.667 160.333L172.333 159.667z"/>
<path style="fill:#f99688; stroke:none;" d="M241 160L242 161L241 160M73 161L72 165L73 161z"/>
<path style="fill:#e54933; stroke:none;" d="M54 164L55 165L54 164z"/>
<path style="fill:#f57764; stroke:none;" d="M277 165L278 166L277 165z"/>
<path style="fill:#e54933; stroke:none;" d="M0 167L1 168L0 167M2 167C3.97775 174.253 7.39637 183.127 16 182L12 173L6 171L7 168L2 167M12 168L15 175L22 167L12 168M8 168L8 170L10 170L10 168L8 168z"/>
<path style="fill:#cd1c07; stroke:none;" d="M170 168L170 170L172 170L172 168L170 168z"/>
<path style="fill:#f99688; stroke:none;" d="M101 169L102 170L101 169z"/>
<path style="fill:#910503; stroke:none;" d="M225.333 171.667L225.667 172.333L225.333 171.667z"/>
<path style="fill:#e54933; stroke:none;" d="M41 172L42 173L41 172z"/>
<path style="fill:#f99688; stroke:none;" d="M361 173C365.137 178.088 370.511 179.215 374 173L361 173z"/>
<path style="fill:#910503; stroke:none;" d="M223 173L224 174L223 173z"/>
<path style="fill:#cd1c07; stroke:none;" d="M357 173L356 179L359 178L357 173z"/>
<path style="fill:#e54933; stroke:none;" d="M39 174L39 175L42 175L39 174M79 174L82 177L79 174M232.333 175.667L232.667 176.333L232.333 175.667M241.333 175.667L241.667 176.333L241.333 175.667z"/>
<path style="fill:#f57764; stroke:none;" d="M227 176L228 177L227 176z"/>
<path style="fill:#910503; stroke:none;" d="M216 178L214 181L217 182L216 178z"/>
<path style="fill:#e54933; stroke:none;" d="M35 181L38 184C38.2242 188.66 43.1108 193.431 45 187L49 188L51 179L35 181M163 180L164 181L163 180z"/>
<path style="fill:#f99688; stroke:none;" d="M0 181L3 209L0 207L1 227L2 227L1 220L13 223L10 235L5 235L5 232L0 232L0 243L5 243L7 248L7 249C0.539967 249.744 1.32437 253.119 4 258L11 256L11 258L7 258L7 262L12 262L12 264C4.82806 264.969 3.85879 269.563 5 276C11.8482 277.178 15.3348 279.332 22 276C19.5107 270.737 14.3063 265.856 21 262C23.7963 268.584 38.8194 272.049 44.5671 267.03C47.6746 264.317 47.7576 259.859 51 257C51.176 261.68 49.8867 267.241 56 267L63 275L60 275L60 276C64.9319 275.728 71.6674 271.754 71.4051 265.83C71.2776 262.95 68.2864 260.964 68.537 258.019C68.7921 255.022 72.0274 252.713 74.8441 253.858C77.9135 255.106 80.0683 258.379 83 260C82.2031 264.837 86.89 269.001 89.0162 262.89C91.6361 255.36 82.9722 247.058 90 240L93 243L96 250C96.5984 242.407 107.663 221.883 94 224L94 228L93 228L90 227L93 216L78 210L77 205L76 205L69 212C62.9676 208.315 57.0977 207.155 50 208L50 205C42.5772 206.471 41.4544 209.227 45 216L24 223C23.0438 212.383 17.132 207.47 28 200L19 187L17 190L0 181M91 181L91 188L96 182L93 183L93 181L91 181z"/>
<path style="fill:#910503; stroke:none;" d="M206 181L206 188L206 181z"/>
<path style="fill:#f57764; stroke:none;" d="M229 182L233 186L232 181L229 182z"/>
<path style="fill:#f99688; stroke:none;" d="M379 181L380 182L379 181M26 182C27.0537 185.781 26.2524 186.91 23 189C28.5934 192.226 33.2008 184.194 26 182M78 182L79 186L80 186L81 182L78 182z"/>
<path style="fill:#910503; stroke:none;" d="M202.667 182.333L203.333 182.667L202.667 182.333z"/>
<path style="fill:#f57764; stroke:none;" d="M353 182L354 183L353 182z"/>
<path style="fill:#f99688; stroke:none;" d="M366 191L371 192L377 199L379 194L376 191L375 194L374 194L374 182L366 191M68 183L70 185L70 183L68 183z"/>
<path style="fill:#f57764; stroke:none;" d="M356 183L357 184L356 183z"/>
<path style="fill:#f99688; stroke:none;" d="M22 184L22 186L24 186L24 184L22 184z"/>
<path style="fill:#cd1c07; stroke:none;" d="M116 184C115.184 191.956 118.116 191.504 125 191C123.341 185.771 121.384 184.366 116 184z"/>
<path style="fill:#910503; stroke:none;" d="M212 184L211 187L212 184M209 186L210 187L209 186z"/>
<path style="fill:#e54933; stroke:none;" d="M56 187L58 192L56 187z"/>
<path style="fill:#f99688; stroke:none;" d="M72 187L76 192L76 187L75 187L74 190L72 187z"/>
<path style="fill:#cd1c07; stroke:none;" d="M135.667 187.333L136.333 187.667L135.667 187.333z"/>
<path style="fill:#e54933; stroke:none;" d="M398 187L398 191L393 192L393 193L397 196L393 193L385 194C386.414 198.553 395.658 200.58 398.972 196.397C400.769 194.129 400 189.703 400 187L398 187z"/>
<path style="fill:#910503; stroke:none;" d="M203 188L204 189L203 188z"/>
<path style="fill:#e54933; stroke:none;" d="M87 189L93 192L87 189z"/>
<path style="fill:#910503; stroke:none;" d="M204.667 190.333L205.333 190.667L204.667 190.333M200 191L201 192L200 191z"/>
<path style="fill:#f57764; stroke:none;" d="M0 192C0 197.768 -1.39063 204.7 3 209C2.6421 202.882 4.24721 197.171 0 192z"/>
<path style="fill:#e54933; stroke:none;" d="M139.667 192.333L140.333 192.667L139.667 192.333z"/>
<path style="fill:#910503; stroke:none;" d="M202 192L202 194L204 194L204 192L202 192z"/>
<path style="fill:#e54933; stroke:none;" d="M34 193L35 197L36 197L34 193z"/>
<path style="fill:#f99688; stroke:none;" d="M104 194L98 195C99.4943 200.133 102.238 200.332 107 199L104 194M114 202L109 202C107.716 210.189 115.557 208.317 120 205L132 216C131.6 221.828 128.18 224.732 123 227C123.183 230.946 125.823 235.242 125.454 238.985C124.922 244.399 114.647 253.754 128 252C127.239 257.093 131.885 259.265 135 255L138 256L140 250L148 255L149 251C158.391 253.75 177.36 252.369 179.908 239.999C180.706 236.129 177.732 232.526 176.622 229C172.049 214.467 165.097 199.355 149 195C145.137 208.668 139.213 196.545 130.999 194.963C125.392 193.883 114.312 195.161 114 202z"/>
<path style="fill:#e54933; stroke:none;" d="M53.3333 195.667L53.6667 196.333L53.3333 195.667M40 196L42 198L40 196z"/>
<path style="fill:#f57764; stroke:none;" d="M155 196L159 200L155 196z"/>
<path style="fill:#f99688; stroke:none;" d="M367 196L369 200L367 196z"/>
<path style="fill:#e54933; stroke:none;" d="M46 197L47 198L46 197z"/>
<path style="fill:#cd1c07; stroke:none;" d="M255 197L256 214L251 213L241 207L239 209L235 208L236 205L235 204L225.638 205.029L222 224L215 219C216.56 212.596 208.908 207.932 205.032 214.279C203.947 216.057 204.255 218.09 204.718 220C206.411 226.982 206.358 246.641 198 232L188 236L188 241L184 246L173 250L173 251L176 251C171.584 261.958 161.371 259.954 151 262L168 253L168 252C158.994 255.522 150.918 256.054 150 267L158 266L158 265L156 263L164 260L170 268L179 265L177 273L177 270L176 270L165 275L168 278L165 276L166 283L162 281L159 283L158 283L154 282L153 289L155 292L155 293C150.274 298.357 151.146 304.894 148.6 311C145.73 317.885 134.873 325.182 138 333L139 333C145.131 327.811 152.454 324.994 160 328C157.133 336.333 161.46 339.08 169 336L168 334L175 333C174.322 320.808 183.766 316.206 196 318.576C198.776 319.113 201.152 321.822 203.961 321.802C207.185 321.779 210.983 317.355 214 316L215 321L214 318L217 319C218.807 306.381 224.754 301.036 235 295C232.82 286.736 237.02 286.786 238.397 279.871C240.132 271.151 237.942 253.367 251 253C253.988 248.117 258.541 250.486 262.857 247.972C273.218 241.937 261.831 232.522 260 226C248.179 219.573 267.221 217.384 271 216L275 221L282 213L282 212L275 210C270.979 214.109 268.322 211.637 264 209L262 213L257 197L255 197z"/>
<path style="fill:#e54933; stroke:none;" d="M347 197L344 198L344 199L348 198L347 197M35 198L33 203L37 198L35 198z"/>
<path style="fill:#f57764; stroke:none;" d="M120.667 198.333L121.333 198.667L120.667 198.333z"/>
<path style="fill:#f99688; stroke:none;" d="M381 198L383 200L381 198z"/>
<path style="fill:#e54933; stroke:none;" d="M58 199L59 200L58 199z"/>
<path style="fill:#cd1c07; stroke:none;" d="M261 199L261 201L263 201L263 199L261 199z"/>
<path style="fill:#e54933; stroke:none;" d="M45 200L46 202L47 202L48 200L45 200z"/>
<path style="fill:#f57764; stroke:none;" d="M159 200L162 203L159 200z"/>
<path style="fill:#f99688; stroke:none;" d="M50 201L50 203L53 203L53 201L50 201M386 201L383 203L386 207L386 201z"/>
<path style="fill:#cd1c07; stroke:none;" d="M221 202L222 203L221 202z"/>
<path style="fill:#f99688; stroke:none;" d="M300 202L301 203L300 202M396 202L396 208L390 205C387.953 208.964 387.822 211.765 392 214L390 209L400 210L396 202z"/>
<path style="fill:#f57764; stroke:none;" d="M162.667 203.333L163.333 203.667L162.667 203.333M164 204L165 205L164 204z"/>
<path style="fill:#cd1c07; stroke:none;" d="M221 204L222 205L221 204z"/>
<path style="fill:#f99688; stroke:none;" d="M380 204L378 207L380 204z"/>
<path style="fill:#f57764; stroke:none;" d="M165 205L166 206L165 205M166 206L167 207L166 206z"/>
<path style="fill:#910503; stroke:none;" d="M176 206L177 207L176 206z"/>
<path style="fill:#cd1c07; stroke:none;" d="M217 206L218 207L217 206z"/>
<path style="fill:#f57764; stroke:none;" d="M167 207L169 209L169 207L167 207z"/>
<path style="fill:#e54933; stroke:none;" d="M226 207L227 208L226 207z"/>
<path style="fill:#910503; stroke:none;" d="M175 208L176 212L177 212L177 208L175 208z"/>
<path style="fill:#f57764; stroke:none;" d="M169 209L170 210L169 209z"/>
<path style="fill:#910503; stroke:none;" d="M179 209L179 211L181 211L179 209z"/>
<path style="fill:#cd1c07; stroke:none;" d="M252 209L252 211L254 211L254 209L252 209z"/>
<path style="fill:#f99688; stroke:none;" d="M300 209L299 213L303 209L300 209z"/>
<path style="fill:#e54933; stroke:none;" d="M258 210L259 211L258 210z"/>
<path style="fill:#f57764; stroke:none;" d="M71.3333 211.667L71.6667 212.333L71.3333 211.667z"/>
<path style="fill:#910503; stroke:none;" d="M177 214L179 216L179 214L177 214z"/>
<path style="fill:#f99688; stroke:none;" d="M399 215L396 224L399 226L400 226L399 215z"/>
<path style="fill:#910503; stroke:none;" d="M175 217L177 219L177 217L175 217z"/>
<path style="fill:#f57764; stroke:none;" d="M1 220C1.2921 222.556 3.97742 226 0 226L0 232L5 232L5 235L10 235L13 223C8.0828 220.574 6.63656 218.062 1 220z"/>
<path style="fill:#f99688; stroke:none;" d="M25.6667 218.333L26.3333 218.667L25.6667 218.333z"/>
<path style="fill:#e54933; stroke:none;" d="M102 237L107 238L111 235L110 224L113 219C104.912 220.97 104.474 230.126 102 237z"/>
<path style="fill:#f57764; stroke:none;" d="M290 222L289 224L291 224L290 222M292 225L294 233L304 227L301 230L294 225L292 225M359 226L361 230L362 230L365 228L359 226M374 226L374 227L378 227L374 226z"/>
<path style="fill:#cd1c07; stroke:none;" d="M290.333 228.667L290.667 229.333L290.333 228.667z"/>
<path style="fill:#f57764; stroke:none;" d="M326 230L329 234L326 230M341 230L339 233L343 231L341 230z"/>
<path style="fill:#cd1c07; stroke:none;" d="M201 231L200 234L201 231M288 231L287 234L288 231z"/>
<path style="fill:#f57764; stroke:none;" d="M78 233L79 234L78 233z"/>
<path style="fill:#e54933; stroke:none;" d="M210 233L211 234L210 233z"/>
<path style="fill:#cd1c07; stroke:none;" d="M274.667 233.333L275.333 233.667L274.667 233.333z"/>
<path style="fill:#f99688; stroke:none;" d="M317 233L318 234L317 233z"/>
<path style="fill:#f57764; stroke:none;" d="M369 233L370 234L369 233M336 235L336 236L340 234L336 235z"/>
<path style="fill:#cd1c07; stroke:none;" d="M273 235L274 236L273 235z"/>
<path style="fill:#f57764; stroke:none;" d="M369 235C370.546 241.543 380.943 262.863 385 246L374 240C375.506 237.322 376.531 235.742 373 235L374 238L369 235z"/>
<path style="fill:#e54933; stroke:none;" d="M208 237L208 239L209 240L211 240L212 236L208 237z"/>
<path style="fill:#f57764; stroke:none;" d="M321 236L321 239L323 239L323 236L321 236M324 237L325 238L324 237M131 241L132 242L131 241z"/>
<path style="fill:#e54933; stroke:none;" d="M192 241L193 242L192 241z"/>
<path style="fill:#f99688; stroke:none;" d="M302 247L310 246L318 249C315.165 245.095 303.638 239.319 302 247z"/>
<path style="fill:#f57764; stroke:none;" d="M132 245L132 247L134 247L134 245L132 245M136 246L138 249L138 246L136 246z"/>
<path style="fill:#e54933; stroke:none;" d="M348 250L346 261L347 261L347 254L350 254L350 250L348 250M166 251L166 252L170 252L166 251z"/>
<path style="fill:#cd1c07; stroke:none;" d="M170.667 251.333L171.333 251.667L170.667 251.333z"/>
<path style="fill:#910503; stroke:none;" d="M151 262C160.982 260.701 173.106 262.487 176 251C168.775 251.591 155.076 255.886 151 262z"/>
<path style="fill:#e54933; stroke:none;" d="M165 252L166 253L165 252z"/>
<path style="fill:#f99688; stroke:none;" d="M253 252L253 254L255 252L253 252z"/>
<path style="fill:#e54933; stroke:none;" d="M164 253L165 254L164 253M158 254L158 255L164 255L158 254M105 255C100.224 265.27 91.5654 277.561 81 283C90.3975 301.63 104.334 261.241 114 277L119 276L119 275L113 273C116.331 267.727 118.499 264.067 116 258L105 255M153 256L153 257L158 256L153 256z"/>
<path style="fill:#f99688; stroke:none;" d="M138 257C138.727 261.202 141.345 262.23 145 264L144 261L148 259L138 257z"/>
<path style="fill:#e54933; stroke:none;" d="M151 257L151 259L153 257L151 257z"/>
<path style="fill:#f57764; stroke:none;" d="M142 258L142 260L144 258L142 258z"/>
<path style="fill:#f99688; stroke:none;" d="M247 258L247 263L248 263L247 258z"/>
<path style="fill:#e54933; stroke:none;" d="M150 259C147.302 262.397 145.44 264.141 141 264C138.053 276.933 149.22 278.043 151.602 289.001C153.223 296.458 146.828 302.424 149 310L150 310L155 293L155 292L153 289L154 282L158 283L159 283L162 281L166 283L165 276L168 278L165 275L177 270L177 273L178 273L179 265L170 268L164 260L156 263L158 265L158 266L150 267L150 259z"/>
<path style="fill:#f99688; stroke:none;" d="M75 260L74 262L76 262L75 260M134 269C125.228 272.216 128.689 283.753 129 291C125.04 289.549 118.564 289.419 115.302 287.103C112.154 284.869 112.174 280.891 107.956 279.739C101.058 277.856 91.7063 287.714 91 294L76 286.188L53 296L58 314C52.0215 308.841 46.9 308.32 45 317L49 323L46 321C40.1294 322.851 23.9639 333.5 39 334L41 348C44.8501 346.592 49.5509 343.484 51 349L54 350L54 351L47 351L46 351C43.9306 358.979 43.1526 366.28 54 368L54 376C50.8659 378.864 53.3277 388.374 55 392L60 393L71.9282 384.614L66 366L68 364L64 363L65 360C70.749 362.938 74.2685 365.971 81 364L74.1481 352.961L71.3966 343.588L58.7778 332.715L52 322L60 311L63 317L77 310C77.0996 318.201 71.7545 330.932 75.0471 338.847C78.6227 347.443 89.661 330.341 90 326C99.1963 330.594 94.6568 333.35 97.6034 340.83C99.1466 344.748 102.314 346.564 103 351L100 351C100.279 359.397 107.434 357.056 110.972 363.188C114.305 368.964 109.63 376.482 118 379C119.215 374.86 122.014 373.024 125.196 377.078C129.064 382.005 124.985 386.169 127.132 390.871C133.882 405.652 150.134 396.754 160 391L159 387L164 386L164 390L169 391L170 387C180.268 387.965 178.326 381.217 175.536 374C171.844 364.446 160.166 353.065 173 346L173 345C162.336 342.599 156.77 341.826 149 333C141.391 334.9 133.682 336.313 126 334L142 313C145.293 313.056 148.011 310.779 145 308L145 307C150.801 299.206 151.987 285.537 142 281C142.671 276.36 140.004 274.783 136 273L136 268L139 269L138 261C133.657 262.319 132.877 264.746 134 269M243 261L244 262L243 261z"/>
<path style="fill:#f57764; stroke:none;" d="M282 263L289 267L290 262L282 263z"/>
<path style="fill:#cd1c07; stroke:none;" d="M142 265L140 272L149 270L142 265z"/>
<path style="fill:#e54933; stroke:none;" d="M194.333 266.667L194.667 267.333L194.333 266.667z"/>
<path style="fill:#f99688; stroke:none;" d="M312 266L312 271L316 271L313 279L309 278L308 285C313.973 285.877 324.417 288.919 322 279L319 281L317 273L319 266L312 266z"/>
<path style="fill:#910503; stroke:none;" d="M143 270L146 267L143 270z"/>
<path style="fill:#f99688; stroke:none;" d="M325 267L325 270L326 270L325 267M328 269L328 270C331.429 272.28 333.195 272.725 337 271L337 269L328 269z"/>
<path style="fill:#f57764; stroke:none;" d="M5.33333 270.667L5.66667 271.333L5.33333 270.667z"/>
<path style="fill:#f99688; stroke:none;" d="M82 270L82 272L84 272L84 270L82 270z"/>
<path style="fill:#e54933; stroke:none;" d="M182 270L183 271L182 270z"/>
<path style="fill:#f99688; stroke:none;" d="M28 271L28 272L33 273L33 271L28 271z"/>
<path style="fill:#e54933; stroke:none;" d="M175 272L176 273L175 272z"/>
<path style="fill:#f57764; stroke:none;" d="M345.333 273.667L345.667 274.333L345.333 273.667z"/>
<path style="fill:#f99688; stroke:none;" d="M325 275L325 280L329 280L330 275L329 275L328 275L329 277L328 277L325 275M65 276L66 277L65 276z"/>
<path style="fill:#f57764; stroke:none;" d="M132.333 277.667L132.667 278.333L132.333 277.667z"/>
<path style="fill:#f99688; stroke:none;" d="M304 281L304 283L307 283L307 281L304 281M325 281L326 282L325 281z"/>
<path style="fill:#e54933; stroke:none;" d="M0 292C0 298.031 -2.69362 314.048 2.58873 318.289C5.23183 320.41 10.0657 317.218 13 316.859C21.3547 315.835 28.0427 319.808 36 320L41 303C37.0965 297.515 45.1269 292.499 48 288L49 288C52.5792 291.652 56.3009 291.399 59 287L60 287L61 290C64.8925 289.013 67.683 287.96 69 284L44 283.434L30.9853 291.408L18.2238 286.532L11.8673 292.244L0 292z"/>
<path style="fill:#f57764; stroke:none;" d="M385 285L381 291L388 292C388.403 288.42 388.201 286.806 385 285M285 286L285 288L287 288L287 286L285 286M364 287L365 297L370 295L364 287z"/>
<path style="fill:#e54933; stroke:none;" d="M309 288L310 289L309 288z"/>
<path style="fill:#910503; stroke:none;" d="M228.333 289.667L228.667 290.333L228.333 289.667z"/>
<path style="fill:#f57764; stroke:none;" d="M284 290L284 292L286 292L286 290L284 290z"/>
<path style="fill:#f99688; stroke:none;" d="M302 291L302 293L304 293L302 291z"/>
<path style="fill:#f57764; stroke:none;" d="M281 292L285 295L281 292z"/>
<path style="fill:#910503; stroke:none;" d="M227.333 293.667L227.667 294.333L227.333 293.667z"/>
<path style="fill:#f99688; stroke:none;" d="M324 293L323 294L326 296L324 293z"/>
<path style="fill:#910503; stroke:none;" d="M203 299L203 300L207 300L206 304L205 304C202.485 300.122 199.013 301.963 195 302L198 309L199 309L199 302L202 304L202 305L200 308L211 305L208 301L214 303L211 296L203 299z"/>
<path style="fill:#cd1c07; stroke:none;" d="M1 297L2 308C5.56347 304.297 6.76261 298.873 1 297z"/>
<path style="fill:#f57764; stroke:none;" d="M374 298L373 305L380 315L380 313L382 313L387 319C399.739 309.917 382.086 305.368 379 298L377 300L376 300L374 298M382 298L382 300L386 300L386 298L382 298z"/>
<path style="fill:#cd1c07; stroke:none;" d="M17 305L17 299C12.8633 300.656 12.8633 303.344 17 305z"/>
<path style="fill:#910503; stroke:none;" d="M190 299L178 306L181 307L181 315C186.064 312.946 190.282 304.492 190 299M192 301L192 303L194 301L192 301z"/>
<path style="fill:#cd1c07; stroke:none;" d="M31 317L33 306C27.6362 307.763 27.6769 313.094 31 317z"/>
<path style="fill:#e54933; stroke:none;" d="M31 307L32 308L31 307z"/>
<path style="fill:#f99688; stroke:none;" d="M251 309L249 315L255 316L251 309z"/>
<path style="fill:#cd1c07; stroke:none;" d="M243 310L239 312L239 314L246 315L243 310z"/>
<path style="fill:#f99688; stroke:none;" d="M254.667 310.333L255.333 310.667L254.667 310.333z"/>
<path style="fill:#f57764; stroke:none;" d="M311 325C313.827 324.412 319.129 324.693 321.396 322.948C324.085 320.878 322.456 315.839 318.999 315.948C315.477 316.059 311.983 322.096 311 325z"/>
<path style="fill:#e54933; stroke:none;" d="M289 317C288.222 322.487 291.92 324.617 297 325C296.017 320.438 293.185 318.701 289 317z"/>
<path style="fill:#cd1c07; stroke:none;" d="M226 332C230.037 336.624 225.504 341.41 221 337C210.504 339.979 213.689 352.759 210.262 360.981C208.253 365.801 204.199 364.534 200.894 367.317C197.328 370.319 198.508 379.776 201 383L201 384L194 385L189 388L187 400C202.302 399.998 208.083 385.7 223 383L226 375L234 379C238.115 374.056 243.991 373.934 250 375C250.193 368.974 253.428 364.761 258 361L257 358L266 357L267 352L263 353L259 349L260 351L259 351L255 347L241 348L240 339L247 343L256 345L251 338L250 341L249 341L249 333L252 334C252.758 329.042 248.709 328.256 246 332C241.011 328.655 238.888 324.926 238 319C229.559 318.204 228.685 325.179 226 332z"/>
<path style="fill:#f57764; stroke:none;" d="M83 321L84 326L85 326L85 321L83 321z"/>
<path style="fill:#cd1c07; stroke:none;" d="M198 321L202 326L202 327C193.384 328.284 185.292 332.65 187 342L192 338C199.898 339.798 211.971 338.167 202 329L208 330L209 324L198 321z"/>
<path style="fill:#910503; stroke:none;" d="M151 323L152 324L151 323M154 323L154 324L157 324L154 323z"/>
<path style="fill:#e54933; stroke:none;" d="M165 323L167 328L165 323z"/>
<path style="fill:#f57764; stroke:none;" d="M360 344L361 341L369 344L369 345L357 353L356 353L354 351L353 358L352 358L351 352L345 351L347 360L347 361C339.673 362.267 332.881 366.108 332 374C339.654 376.22 338.634 383.617 337 390L334 389L337 400L363 400L363 399L361 393L358 385C363.886 387.693 367.432 387.382 370 381C359.539 378.19 355.601 380.156 351 368L358 369L358 368C361.054 367.346 360.936 365.993 361 363C366.323 363.552 372.837 362.414 375 357C380.212 359.366 385.04 358.02 386 352L383 353L385 351L380 344L383 338L384 338L385 340L386 340L389 338L383 334L382 329C370.485 331.553 364.705 335.969 360 323C350.025 326.028 356.512 338.309 360 344M399 324L390 334L391 338L399 338L399 324z"/>
<path style="fill:#cd1c07; stroke:none;" d="M243 325L243 328L246 327L246 326L243 325z"/>
<path style="fill:#e54933; stroke:none;" d="M298 326L299 327L298 326z"/>
<path style="fill:#f99688; stroke:none;" d="M33 351C29.3103 341.619 27.8506 342.384 20.439 336.877C16.6341 334.049 15.1447 330.559 10 331C6.9281 326.332 2.29881 330.159 2.72377 334.997C3.78292 347.054 23.3237 352.556 33 351z"/>
<path style="fill:#e54933; stroke:none;" d="M162 329L161 332L162 329M129 334L132 331L129 334z"/>
<path style="fill:#f57764; stroke:none;" d="M390 332L391 333L390 332z"/>
<path style="fill:#f99688; stroke:none;" d="M94 334L94 340L95 340L94 334z"/>
<path style="fill:#e54933; stroke:none;" d="M160.333 334.667L160.667 335.333L160.333 334.667z"/>
<path style="fill:#cd1c07; stroke:none;" d="M173 334L174 335L173 334z"/>
<path style="fill:#e54933; stroke:none;" d="M237.333 339.667L237.667 340.333L237.333 339.667z"/>
<path style="fill:#cd1c07; stroke:none;" d="M192 341L197 344L192 341z"/>
<path style="fill:#f99688; stroke:none;" d="M0 343L1 344L0 343z"/>
<path style="fill:#f57764; stroke:none;" d="M207 361L206 350C204.032 348.947 200.818 346.501 198.448 347.478C195.856 348.547 195.961 358.567 197.696 360.361C199.792 362.529 204.306 360.887 207 361z"/>
<path style="fill:#cd1c07; stroke:none;" d="M260 347L261 348L260 347z"/>
<path style="fill:#f57764; stroke:none;" d="M399 347L400 353L399 347z"/>
<path style="fill:#f99688; stroke:none;" d="M378 348L379 349L378 348z"/>
<path style="fill:#cd1c07; stroke:none;" d="M176 349C177.256 353.069 180.756 353.911 181 349L178 351L178 349L176 349z"/>
<path style="fill:#f57764; stroke:none;" d="M56 350C55.59 355.127 55.9659 359.226 62 359C61.1309 354.85 60.1028 351.628 56 350M344 350L345 351L344 350z"/>
<path style="fill:#e54933; stroke:none;" d="M366 354L367 355L369 352L366 354z"/>
<path style="fill:#f57764; stroke:none;" d="M342 355L344 358L344 355L342 355z"/>
<path style="fill:#f99688; stroke:none;" d="M348 356L348 359L349 359L348 356M198 358L199 359L198 358M11 372L9 389L0 385L0 400L19 395L17 393L17 392L20 396C28.6084 394.911 37.4122 389.725 32.2932 379.213C30.6846 375.91 26.6946 374.839 24.5995 371.895C21.4611 367.485 22.7781 363.095 16.9815 360.634C6.91529 356.36 2.50095 369.077 11 372z"/>
<path style="fill:#f57764; stroke:none;" d="M386 359L385 368L391 368L388 374L393 380C402.49 377.905 400 368.959 400 361C396.35 361.306 391.206 364.966 390 360L386 359M63 360L64 361L63 360z"/>
<path style="fill:#cd1c07; stroke:none;" d="M265 361L266 362L265 361z"/>
<path style="fill:#f57764; stroke:none;" d="M328 361L329 365L326 365L326 368L332 365L328 361M322 362L321 365L322 362M272.333 363.667L272.667 364.333L272.333 363.667M58 367L65 367L64 364L58 367M193 367L194 368L193 367z"/>
<path style="fill:#f99688; stroke:none;" d="M3 368L4 369L3 368z"/>
<path style="fill:#f57764; stroke:none;" d="M270 371L272 374L270 371z"/>
<path style="fill:#e54933; stroke:none;" d="M344 372C341.783 381.444 349.432 381.502 346 372L344 372M84 373C76.0657 383.107 90.3216 384.824 86 373L84 373z"/>
<path style="fill:#f99688; stroke:none;" d="M255 375C253.374 384.312 261.596 391.081 264 400L293 400C293.923 390.557 289.134 392.446 283.274 388.326C281.514 387.089 280.715 384.424 278.586 383.735C276.311 383 273.866 384.794 271.576 384.875C264.244 385.133 260.285 380.881 257 375L255 375z"/>
<path style="fill:#f57764; stroke:none;" d="M270 377L273 375L270 377M289 375L290 376L289 375M306 375L307 376L306 375M292 376L293 379L292 376M56.3333 379.667L56.6667 380.333L56.3333 379.667M386 384L382 400L392 400L392 399L389 399L390 396L400 400L395 392C399.609 393.127 401.985 388.068 397 387L398 391L395 390L396 386L395 386L393 390L392 384L386 384M262.667 385.333L263.333 385.667L262.667 385.333z"/>
<path style="fill:#f99688; stroke:none;" d="M248 387L249 388L248 387z"/>
<path style="fill:#e54933; stroke:none;" d="M107 390L108 391L107 390z"/>
<path style="fill:#f99688; stroke:none;" d="M40 392L42 395L40 392M68 400L93 400C87.6746 391.686 74.1164 392.038 68 400z"/>
<path style="fill:#e54933; stroke:none;" d="M99 394L99 400L107 400L108 392L99 394z"/>
<path style="fill:#f99688; stroke:none;" d="M161 392L162 393L161 392z"/>
<path style="fill:#e54933; stroke:none;" d="M395 392L398 394L399 399L400 399L400 392L395 392z"/>
<path style="fill:#f99688; stroke:none;" d="M345 394L345 395L349 393L345 394M389 399L396 400C393.609 397.419 391.502 395.962 389 399M260 397L260 399L262 399L262 397L260 397z"/>
<path style="fill:#e54933; stroke:none;" d="M148 399L148 400L155 400L155 398L148 399z"/>
</svg>
